<svg xmlns="http://www.w3.org/2000/svg" viewBox="0 0 750 921"><defs><style>.cls-1,.cls-34,.cls-57{fill:#fff;}.cls-2,.cls-20,.cls-3,.cls-36,.cls-4{fill:#ecf1f7;}.cls-2{opacity:0.47;}.cls-4{opacity:0.81;}.cls-10,.cls-11,.cls-13,.cls-23,.cls-30,.cls-31,.cls-5,.cls-9{fill:#4c65ba;}.cls-5{opacity:0.79;}.cls-14,.cls-15,.cls-16,.cls-24,.cls-32,.cls-6{fill:#3e479b;}.cls-6,.cls-7{opacity:0.58;}.cls-42,.cls-43,.cls-46,.cls-47,.cls-7{fill:#ef929c;}.cls-8{opacity:0.35;}.cls-9{opacity:0.44;}.cls-10{opacity:0.29;}.cls-11,.cls-37{opacity:0.18;}.cls-12,.cls-17,.cls-18,.cls-21,.cls-22,.cls-26,.cls-33,.cls-48,.cls-49{fill:#599af2;}.cls-12,.cls-13,.cls-14{opacity:0.6;}.cls-16{font-size:30.46px;letter-spacing:0.04em;}.cls-16,.cls-24,.cls-57{font-family:Exo2-Black, Exo2 Black;font-weight:800;}.cls-17,.cls-18,.cls-26{font-family:Exo2-Bold, Exo2 Bold;font-weight:700;}.cls-18{letter-spacing:0.05em;}.cls-19,.cls-37,.cls-38,.cls-39,.cls-53{fill:#373449;}.cls-20{opacity:0.03;}.cls-22,.cls-31{opacity:0.36;}.cls-23,.cls-32,.cls-33,.cls-34{opacity:0.89;}.cls-24{font-size:19.22px;}.cls-24,.cls-27{letter-spacing:0.04em;}.cls-25{letter-spacing:0.05em;}.cls-26{letter-spacing:0.01em;}.cls-28{letter-spacing:0.03em;}.cls-29{letter-spacing:-0.04em;}.cls-35{fill:#c92127;}.cls-36{opacity:0.06;}.cls-38{opacity:0.32;}.cls-39{opacity:0.42;}.cls-40{fill:#f9dcd2;}.cls-41{opacity:0.13;}.cls-43,.cls-51{opacity:0.37;}.cls-44{fill:#ffaba9;opacity:0.68;}.cls-45{fill:#ff9fa4;}.cls-46,.cls-49{opacity:0.12;}.cls-47{opacity:0.27;}.cls-48{opacity:0.17;}.cls-50{fill:#dbdbdb;}.cls-52{fill:#445eab;}.cls-53{opacity:0.11;}.cls-54{fill:#3b5fac;}.cls-55{fill:#a8d0fe;}.cls-56{fill:none;stroke:#bddfff;stroke-linecap:round;stroke-linejoin:round;stroke-width:0;}.cls-57{font-size:26.61px;letter-spacing:0.04em;}.cls-58{fill:#b33925;}.cls-59{fill:#ef3c23;}.cls-60{opacity:0.1;}</style></defs><g id="BACKGROUND"><rect class="cls-1" y="421" width="750" height="500"/><path class="cls-2" d="M625.31,404.84c10.52-24.6,20-42.79,8-74.09-9-23.34,15.42-42.56,24.86-64.29,8.4-19.33,11.17-42.59,9.12-63.65-2.8-28.77-16.26-57.58-39.57-78.17-36.33-32.09-91.27-40.17-139.43-32.76-20.17,3.11-40.18,8.61-60.83,6.88-30.12-2.53-56.66-19.84-84.08-32.54C306,48.94,263.22,39.64,223.53,47.16c-45,8.53-81.9,40.73-86.3,83.46-2,19.36,18.27,53.47,11.88,71.82-6.49,18.61-53.87,75.61-52.7,119,1.33,49.34,15.38,59.85,34.33,88.58C131.39,411,619.63,418.15,625.31,404.84Z" transform="translate(0 421)"/><path class="cls-3" d="M593.22,398.07a100.92,100.92,0,0,0,16.19-38c5.07-25.23-3.06-46.75-5.09-71.49-1.92-23.42,6.39-43.12,11-65.42,4.11-19.86,2.74-42.34-2.42-61.85-7-26.64-23.25-51.31-46.6-66.35-36.4-23.43-84.93-20.67-125.13-4.55-16.84,6.75-33.15,15.73-51.18,18-26.3,3.31-51.9-8-77.52-14.83-34.88-9.26-73.16-9.94-106.07,4.67-37.3,16.57-63.83,54-60.73,95.16,1.4,18.66,8.59,37.08,6,55.62-2.58,18.81-13.75,34.54-19.66,52.25-9.46,28.31-8.86,72.2,12.06,95.75C144.83,397.88,592.68,398.85,593.22,398.07Z" transform="translate(0 421)"/><path class="cls-4" d="M55.48,233.44A43,43,0,0,1,48,173.09c14.6-18.74,51.76-35.1,70.49-20.5s-3.13,44.73-6.86,68.18C106.42,253.48,74.22,248,55.48,233.44Z" transform="translate(0 421)"/><path class="cls-2" d="M688.13,297.53A29.8,29.8,0,0,1,707.8,334.8c-4.86,15.72-24.92,35.46-40.64,30.6s-9-29.76-12.3-45.87C650.2,297.05,672.41,292.67,688.13,297.53Z" transform="translate(0 421)"/><path class="cls-2" d="M657.72,87.57a25.66,25.66,0,0,1-32.08,16.93c-13.54-4.18-30.52-21.45-26.34-35s25.61-7.71,39.48-10.58C658.13,54.92,661.9,74,657.72,87.57Z" transform="translate(0 421)"/><ellipse class="cls-5" cx="372.4" cy="831.02" rx="246.91" ry="31.98"/><circle class="cls-6" cx="687.5" cy="684.5" r="4.5"/><circle class="cls-7" cx="655.5" cy="809.5" r="3.5"/><circle class="cls-7" cx="112.5" cy="528.5" r="4.5"/><circle class="cls-6" cx="78.5" cy="697.5" r="3.5"/><circle class="cls-6" cx="83.5" cy="550.5" r="1.5"/><path class="cls-7" d="M455.46,62.22a5.4,5.4,0,1,1-4.16-6.42A5.39,5.39,0,0,1,455.46,62.22Z" transform="translate(0 421)"/><path class="cls-6" d="M412.36,80A1.8,1.8,0,1,1,411,77.89,1.8,1.8,0,0,1,412.36,80Z" transform="translate(0 421)"/></g><g id="OBJECTS"><g class="cls-8"><path class="cls-1" d="M578-252a60.07,60.07,0,0,1-60-60,60.07,60.07,0,0,1,60-60,60.07,60.07,0,0,1,60,60A60.07,60.07,0,0,1,578-252Zm0-119a59.07,59.07,0,0,0-59,59,59.07,59.07,0,0,0,59,59,59.07,59.07,0,0,0,59-59A59.07,59.07,0,0,0,578-371Z" transform="translate(0 421)"/><path class="cls-1" d="M578-266c-33.08,0-60-20.64-60-46s26.92-46,60-46,60,20.64,60,46S611.08-266,578-266Zm0-91c-32.53,0-59,20.19-59,45s26.47,45,59,45,59-20.19,59-45S610.53-357,578-357Z" transform="translate(0 421)"/><path class="cls-1" d="M578-277.5c-33.08,0-60-15.48-60-34.5s26.92-34.5,60-34.5S638-331,638-312,611.08-277.5,578-277.5Zm0-68c-32.53,0-59,15-59,33.5s26.47,33.5,59,33.5,59-15,59-33.5S610.53-345.5,578-345.5Z" transform="translate(0 421)"/><path class="cls-1" d="M578-286c-33.08,0-60-11.66-60-26s26.92-26,60-26,60,11.66,60,26S611.08-286,578-286Zm0-51c-32.53,0-59,11.21-59,25s26.47,25,59,25,59-11.21,59-25S610.53-337,578-337Z" transform="translate(0 421)"/><path class="cls-1" d="M578-302c-29.49,0-60-3.74-60-10s30.51-10,60-10,60,3.74,60,10S607.49-302,578-302Zm0-19c-35.29,0-59,4.65-59,9s23.71,9,59,9,59-4.65,59-9S613.29-321,578-321Z" transform="translate(0 421)"/><path class="cls-1" d="M578-252c-25.36,0-46-26.92-46-60s20.64-60,46-60,46,26.92,46,60S603.36-252,578-252Zm0-119c-24.81,0-45,26.47-45,59s20.19,59,45,59,45-26.47,45-59S602.81-371,578-371Z" transform="translate(0 421)"/><path class="cls-1" d="M578-252c-19,0-34.5-26.92-34.5-60S559-372,578-372s34.5,26.92,34.5,60S597-252,578-252Zm0-119c-18.47,0-33.5,26.47-33.5,59s15,59,33.5,59,33.5-26.47,33.5-59S596.47-371,578-371Z" transform="translate(0 421)"/><path class="cls-1" d="M578-252c-14.34,0-26-26.92-26-60s11.66-60,26-60,26,26.92,26,60S592.34-252,578-252Zm0-119c-13.79,0-25,26.47-25,59s11.21,59,25,59,25-26.47,25-59S591.79-371,578-371Z" transform="translate(0 421)"/><path class="cls-1" d="M578-252c-6.26,0-10-30.51-10-60s3.74-60,10-60,10,30.51,10,60S584.26-252,578-252Zm0-119c-4.35,0-9,23.71-9,59s4.65,59,9,59,9-23.71,9-59S582.35-371,578-371Z" transform="translate(0 421)"/></g><g class="cls-8"><path class="cls-1" d="M239-105a60.07,60.07,0,0,1-60-60,60.07,60.07,0,0,1,60-60,60.07,60.07,0,0,1,60,60A60.07,60.07,0,0,1,239-105Zm0-119a59.07,59.07,0,0,0-59,59,59.07,59.07,0,0,0,59,59,59.07,59.07,0,0,0,59-59A59.07,59.07,0,0,0,239-224Z" transform="translate(0 421)"/><path class="cls-1" d="M239-119c-33.08,0-60-20.64-60-46s26.92-46,60-46,60,20.64,60,46S272.08-119,239-119Zm0-91c-32.53,0-59,20.19-59,45s26.47,45,59,45,59-20.19,59-45S271.53-210,239-210Z" transform="translate(0 421)"/><path class="cls-1" d="M239-130.5c-33.08,0-60-15.48-60-34.5s26.92-34.5,60-34.5S299-184,299-165,272.08-130.5,239-130.5Zm0-68c-32.53,0-59,15-59,33.5s26.47,33.5,59,33.5,59-15,59-33.5S271.53-198.5,239-198.5Z" transform="translate(0 421)"/><path class="cls-1" d="M239-139c-33.08,0-60-11.66-60-26s26.92-26,60-26,60,11.66,60,26S272.08-139,239-139Zm0-51c-32.53,0-59,11.21-59,25s26.47,25,59,25,59-11.21,59-25S271.53-190,239-190Z" transform="translate(0 421)"/><path class="cls-1" d="M239-155c-29.49,0-60-3.74-60-10s30.51-10,60-10,60,3.74,60,10S268.49-155,239-155Zm0-19c-35.29,0-59,4.65-59,9s23.71,9,59,9,59-4.65,59-9S274.29-174,239-174Z" transform="translate(0 421)"/><path class="cls-1" d="M239-105c-25.36,0-46-26.92-46-60s20.64-60,46-60,46,26.92,46,60S264.36-105,239-105Zm0-119c-24.81,0-45,26.47-45,59s20.19,59,45,59,45-26.47,45-59S263.81-224,239-224Z" transform="translate(0 421)"/><path class="cls-1" d="M239-105c-19,0-34.5-26.92-34.5-60S220-225,239-225s34.5,26.92,34.5,60S258-105,239-105Zm0-119c-18.47,0-33.5,26.47-33.5,59s15,59,33.5,59,33.5-26.47,33.5-59S257.47-224,239-224Z" transform="translate(0 421)"/><path class="cls-1" d="M239-105c-14.34,0-26-26.92-26-60s11.66-60,26-60,26,26.92,26,60S253.34-105,239-105Zm0-119c-13.79,0-25,26.47-25,59s11.21,59,25,59,25-26.47,25-59S252.79-224,239-224Z" transform="translate(0 421)"/><path class="cls-1" d="M239-105c-6.26,0-10-30.51-10-60s3.74-60,10-60,10,30.51,10,60S245.26-105,239-105Zm0-119c-4.35,0-9,23.71-9,59s4.65,59,9,59,9-23.71,9-59S243.35-224,239-224Z" transform="translate(0 421)"/></g><path class="cls-1" d="M123.77-274.68a3.56,3.56,0,0,1-2.53-1.07l-8.11-8.11a1.57,1.57,0,0,0-1.14-.47H102a5,5,0,0,1-5-5V-308a5,5,0,0,1,5-5h32a5,5,0,0,1,5,5v18.65a5,5,0,0,1-5,5h-5a1.61,1.61,0,0,0-1.61,1.61v4.42a3.57,3.57,0,0,1-2.23,3.34A3.69,3.69,0,0,1,123.77-274.68ZM102-311a3,3,0,0,0-3,3v18.65a3,3,0,0,0,3,3h10a3.57,3.57,0,0,1,2.55,1.05l8.12,8.12a1.55,1.55,0,0,0,1.75.35,1.58,1.58,0,0,0,1-1.49v-4.42a3.61,3.61,0,0,1,3.61-3.61h5a3,3,0,0,0,3-3V-308a3,3,0,0,0-3-3Z" transform="translate(0 421)"/><path class="cls-1" d="M108.5-295.5a3,3,0,0,1-3-3,3,3,0,0,1,3-3,3,3,0,0,1,3,3A3,3,0,0,1,108.5-295.5Zm0-5a2,2,0,0,0-2,2,2,2,0,0,0,2,2,2,2,0,0,0,2-2A2,2,0,0,0,108.5-300.5Z" transform="translate(0 421)"/><path class="cls-1" d="M118-295a3,3,0,0,1-3-3,3,3,0,0,1,3-3,3,3,0,0,1,3,3A3,3,0,0,1,118-295Zm0-5a2,2,0,0,0-2,2,2,2,0,0,0,2,2,2,2,0,0,0,2-2A2,2,0,0,0,118-300Z" transform="translate(0 421)"/><path class="cls-1" d="M127-295a3,3,0,0,1-3-3,3,3,0,0,1,3-3,3,3,0,0,1,3,3A3,3,0,0,1,127-295Zm0-5a2,2,0,0,0-2,2,2,2,0,0,0,2,2,2,2,0,0,0,2-2A2,2,0,0,0,127-300Z" transform="translate(0 421)"/><path class="cls-1" d="M715.09-143.68a3.11,3.11,0,0,1-1.18-.24,3,3,0,0,1-1.87-2.8v-3.45a1,1,0,0,0-1-1h-3.89a4.13,4.13,0,0,1-4.12-4.12v-14.55a4.13,4.13,0,0,1,4.12-4.12h24.94a4.13,4.13,0,0,1,4.13,4.12v14.55a4.13,4.13,0,0,1-4.13,4.12h-7.78a1,1,0,0,0-.73.3l-6.33,6.33A3,3,0,0,1,715.09-143.68Zm-8-28.32a2.12,2.12,0,0,0-2.12,2.12v14.55a2.12,2.12,0,0,0,2.12,2.12H711a3,3,0,0,1,3,3v3.45a1,1,0,0,0,.64.95,1,1,0,0,0,1.13-.22l6.32-6.33a3.09,3.09,0,0,1,2.15-.89h7.78a2.12,2.12,0,0,0,2.13-2.12v-14.55a2.12,2.12,0,0,0-2.13-2.12Z" transform="translate(0 421)"/><path class="cls-1" d="M727-160a2.45,2.45,0,0,1-2.45-2.45,2.45,2.45,0,0,1,2.45-2.45,2.45,2.45,0,0,1,2.45,2.45A2.45,2.45,0,0,1,727-160Zm0-3.9a1.45,1.45,0,0,0-1.45,1.45A1.45,1.45,0,0,0,727-161a1.45,1.45,0,0,0,1.45-1.45A1.45,1.45,0,0,0,727-163.92Z" transform="translate(0 421)"/><path class="cls-1" d="M719.59-159.63a2.45,2.45,0,0,1-2.45-2.45,2.45,2.45,0,0,1,2.45-2.45,2.45,2.45,0,0,1,2.45,2.45A2.45,2.45,0,0,1,719.59-159.63Zm0-3.9a1.45,1.45,0,0,0-1.45,1.45,1.46,1.46,0,0,0,1.45,1.45,1.46,1.46,0,0,0,1.45-1.45A1.45,1.45,0,0,0,719.59-163.53Z" transform="translate(0 421)"/><path class="cls-1" d="M712.58-159.63a2.45,2.45,0,0,1-2.45-2.45,2.45,2.45,0,0,1,2.45-2.45,2.45,2.45,0,0,1,2.45,2.45A2.45,2.45,0,0,1,712.58-159.63Zm0-3.9a1.45,1.45,0,0,0-1.45,1.45,1.46,1.46,0,0,0,1.45,1.45,1.46,1.46,0,0,0,1.45-1.45A1.45,1.45,0,0,0,712.58-163.53Z" transform="translate(0 421)"/><path class="cls-1" d="M672.85-396.69a2.59,2.59,0,0,1-1.84-.76l-5-5a.59.59,0,0,0-.42-.17h-6.14a3.47,3.47,0,0,1-3.46-3.47v-11.46a3.46,3.46,0,0,1,3.46-3.46h19.66a3.46,3.46,0,0,1,3.46,3.46v11.46a3.47,3.47,0,0,1-3.46,3.47h-3.06a.6.6,0,0,0-.6.6v2.72a2.59,2.59,0,0,1-1.61,2.4A2.52,2.52,0,0,1,672.85-396.69ZM659.46-419a1.47,1.47,0,0,0-1.46,1.46v11.46a1.47,1.47,0,0,0,1.46,1.47h6.14a2.6,2.6,0,0,1,1.84.76l5,5a.61.61,0,0,0,.66.13.6.6,0,0,0,.38-.56V-402a2.59,2.59,0,0,1,2.6-2.6h3.06a1.47,1.47,0,0,0,1.46-1.47v-11.46a1.47,1.47,0,0,0-1.46-1.46Z" transform="translate(0 421)"/><path class="cls-1" d="M663.45-409.67a2,2,0,0,1-2-2,2,2,0,0,1,2-2,2,2,0,0,1,2,2A2,2,0,0,1,663.45-409.67Zm0-3.07a1,1,0,0,0-1,1,1,1,0,0,0,1,1,1,1,0,0,0,1-1A1,1,0,0,0,663.45-412.74Z" transform="translate(0 421)"/><path class="cls-1" d="M669.29-409.36a2,2,0,0,1-2-2,2,2,0,0,1,2-2,2,2,0,0,1,2,2A2,2,0,0,1,669.29-409.36Zm0-3.07a1,1,0,0,0-1,1,1,1,0,0,0,1,1,1,1,0,0,0,1-1A1,1,0,0,0,669.29-412.43Z" transform="translate(0 421)"/><path class="cls-1" d="M674.82-409.36a2,2,0,0,1-2-2,2,2,0,0,1,2-2,2,2,0,0,1,2,2A2,2,0,0,1,674.82-409.36Zm0-3.07a1,1,0,0,0-1,1,1,1,0,0,0,1,1,1,1,0,0,0,1-1A1,1,0,0,0,674.82-412.43Z" transform="translate(0 421)"/><path class="cls-1" d="M493.75-76.25l-249.17-.3a1.6,1.6,0,0,1-1.59-1.6l.35-295.26a1.6,1.6,0,0,1,1.6-1.59l249.17.3a1.59,1.59,0,0,1,1.59,1.59l-.36,295.27A1.59,1.59,0,0,1,493.75-76.25Z" transform="translate(0 421)"/><path class="cls-9" d="M493.75-76.25l-249.17-.3a1.6,1.6,0,0,1-1.59-1.6l.35-295.26a1.6,1.6,0,0,1,1.6-1.59l249.17.3a1.59,1.59,0,0,1,1.59,1.59l-.36,295.27A1.59,1.59,0,0,1,493.75-76.25Z" transform="translate(0 421)"/><path class="cls-1" d="M489.75-72.25l-249.17-.3a1.6,1.6,0,0,1-1.59-1.6l.35-295.26a1.6,1.6,0,0,1,1.6-1.59l249.17.3a1.59,1.59,0,0,1,1.59,1.59l-.36,295.27A1.59,1.59,0,0,1,489.75-72.25Z" transform="translate(0 421)"/><path class="cls-10" d="M489.75-72.25l-249.17-.3a1.6,1.6,0,0,1-1.59-1.6l.35-295.26a1.6,1.6,0,0,1,1.6-1.59l249.17.3a1.59,1.59,0,0,1,1.59,1.59l-.36,295.27A1.59,1.59,0,0,1,489.75-72.25Z" transform="translate(0 421)"/><path class="cls-1" d="M484.47-71.47l-246.53-.29a1.6,1.6,0,0,1-1.59-1.6l.35-291.55a1.6,1.6,0,0,1,1.6-1.59l246.52.3a1.59,1.59,0,0,1,1.59,1.59l-.35,291.55A1.59,1.59,0,0,1,484.47-71.47Z" transform="translate(0 421)"/><path class="cls-11" d="M484.47-71.47l-246.53-.29a1.6,1.6,0,0,1-1.59-1.6l.35-291.55a1.6,1.6,0,0,1,1.6-1.59l246.52.3a1.59,1.59,0,0,1,1.59,1.59l-.35,291.55A1.59,1.59,0,0,1,484.47-71.47Z" transform="translate(0 421)"/><path class="cls-1" d="M479.16-70.15l-243.88-.29A1.59,1.59,0,0,1,233.7-72L234-359.62a1.6,1.6,0,0,1,1.6-1.59l243.88.3a1.59,1.59,0,0,1,1.59,1.59l-.35,287.58A1.6,1.6,0,0,1,479.16-70.15Z" transform="translate(0 421)"/><path class="cls-12" d="M391.56-238.07l-146.71-.18a1,1,0,0,1-1-1l.06-49.52a1,1,0,0,1,1-1l146.71.18a1,1,0,0,1,1,1l-.06,49.52A1,1,0,0,1,391.56-238.07Z" transform="translate(0 421)"/><path class="cls-13" d="M469.62-178.41l-223.15-.27a1.42,1.42,0,0,1-1.41-1.42l.06-48.69a1.41,1.41,0,0,1,1.41-1.41l223.16.27a1.41,1.41,0,0,1,1.41,1.42L471-179.83A1.41,1.41,0,0,1,469.62-178.41Z" transform="translate(0 421)"/><rect class="cls-13" x="245.78" y="259.55" width="224.6" height="3.96"/><rect class="cls-13" x="245.78" y="248.98" width="224.6" height="3.96"/><rect class="cls-13" x="245.78" y="270.11" width="191.06" height="3.96"/><rect class="cls-14" x="253.09" y="-147.53" width="51.52" height="70.25" rx="1" transform="translate(390.92 587.58) rotate(-89.93)"/><rect class="cls-13" x="332.27" y="-147.43" width="51.52" height="70.25" rx="1" transform="translate(469.9 666.86) rotate(-89.93)"/><rect class="cls-12" x="410.87" y="-147.34" width="51.52" height="70.25" rx="1" transform="translate(548.31 745.55) rotate(-89.93)"/><path class="cls-14" d="M468.72-283.64l-67.91-.09a1.17,1.17,0,0,1-1.17-1.17h0a1.17,1.17,0,0,1,1.17-1.17l67.91.09a1.17,1.17,0,0,1,1.17,1.17h0A1.17,1.17,0,0,1,468.72-283.64Z" transform="translate(0 421)"/><path class="cls-14" d="M468.71-276.62l-67.91-.08a1.17,1.17,0,0,1-1.17-1.17h0A1.17,1.17,0,0,1,400.8-279l67.91.08a1.17,1.17,0,0,1,1.17,1.17h0A1.17,1.17,0,0,1,468.71-276.62Z" transform="translate(0 421)"/><path class="cls-14" d="M468.7-269.59l-67.91-.08a1.18,1.18,0,0,1-1.17-1.18h0a1.18,1.18,0,0,1,1.17-1.17l67.92.09a1.16,1.16,0,0,1,1.16,1.17h0A1.17,1.17,0,0,1,468.7-269.59Z" transform="translate(0 421)"/><path class="cls-14" d="M468.69-262.57l-67.91-.08a1.17,1.17,0,0,1-1.17-1.17h0a1.17,1.17,0,0,1,1.17-1.17l67.92.08a1.18,1.18,0,0,1,1.17,1.17h0A1.17,1.17,0,0,1,468.69-262.57Z" transform="translate(0 421)"/><path class="cls-14" d="M468.69-255.54l-67.92-.08a1.18,1.18,0,0,1-1.17-1.18h0a1.18,1.18,0,0,1,1.18-1.17l67.91.09a1.17,1.17,0,0,1,1.17,1.17h0A1.17,1.17,0,0,1,468.69-255.54Z" transform="translate(0 421)"/><path class="cls-14" d="M468.68-248.52l-67.92-.08a1.17,1.17,0,0,1-1.17-1.17h0a1.18,1.18,0,0,1,1.18-1.17l67.91.08a1.17,1.17,0,0,1,1.17,1.17h0A1.17,1.17,0,0,1,468.68-248.52Z" transform="translate(0 421)"/><path class="cls-14" d="M468.67-241.49l-67.91-.08a1.17,1.17,0,0,1-1.17-1.17h0a1.16,1.16,0,0,1,1.17-1.17l67.91.08a1.17,1.17,0,0,1,1.17,1.17h0A1.17,1.17,0,0,1,468.67-241.49Z" transform="translate(0 421)"/><rect class="cls-15" x="328.82" y="-388.61" width="4.68" height="174.47" rx="0.83" transform="translate(632.13 451.15) rotate(-89.93)"/><text class="cls-16" transform="matrix(1, 0, 0, 1, 259, 104.47)">WORLD <tspan class="cls-17" x="111.56" y="0">N</tspan><tspan class="cls-18" x="132.82" y="0">E</tspan><tspan class="cls-17" x="149.3" y="0">WS</tspan></text><rect class="cls-15" x="452.41" y="-365.62" width="5.85" height="30.44" transform="translate(805.18 526.36) rotate(-89.93)"/><rect class="cls-15" x="476.3" y="123.66" width="126.7" height="230.75" rx="14.97"/><rect class="cls-19" x="476.3" y="123.66" width="126.7" height="230.75" rx="14.97"/><path class="cls-20" d="M584.82-70H493.18A14.36,14.36,0,0,1,479-84.53V-279.47A14.36,14.36,0,0,1,493.18-294h91.64A14.36,14.36,0,0,1,599-279.47V-84.53A14.36,14.36,0,0,1,584.82-70Z" transform="translate(0 421)"/><rect class="cls-1" x="483.04" y="130.13" width="113.22" height="218.89" rx="10.12"/><path class="cls-21" d="M595.18-284.4a4.13,4.13,0,0,0-2-3.61,10.08,10.08,0,0,0-7.05-2.86h-93a10.12,10.12,0,0,0-9,5.42,7.2,7.2,0,0,0-.08,1.05Z" transform="translate(0 421)"/><path class="cls-1" d="M579.57-287.1a1.08,1.08,0,0,1-1.08,1.08,1.07,1.07,0,0,1-1.07-1.08,1.08,1.08,0,0,1,1.07-1.08A1.08,1.08,0,0,1,579.57-287.1Z" transform="translate(0 421)"/><path class="cls-1" d="M583.89-287.1a1.08,1.08,0,0,1-1.08,1.08,1.08,1.08,0,0,1-1.08-1.08,1.08,1.08,0,0,1,1.08-1.08A1.09,1.09,0,0,1,583.89-287.1Z" transform="translate(0 421)"/><path class="cls-1" d="M588.2-287.1a1.08,1.08,0,0,1-1.08,1.08A1.08,1.08,0,0,1,586-287.1a1.09,1.09,0,0,1,1.08-1.08A1.08,1.08,0,0,1,588.2-287.1Z" transform="translate(0 421)"/><path class="cls-19" d="M518.63-290.95l6.5,5.5a3.57,3.57,0,0,0,2.52,1.05h24.72a4,4,0,0,0,3-1.4l5.28-5.15Z" transform="translate(0 421)"/><path class="cls-19" d="M518.63-290.95l6.5,5.5a3.57,3.57,0,0,0,2.52,1.05h24.72a4,4,0,0,0,3-1.4l5.28-5.15Z" transform="translate(0 421)"/><path class="cls-22" d="M542.57-164.53H496.49c-1,0-1.79-.46-1.79-1v-45.89c0-.57.8-1,1.79-1h46.08c1,0,1.8.46,1.8,1v45.89C544.37-165,543.56-164.53,542.57-164.53Z" transform="translate(0 421)"/><path class="cls-23" d="M585.21-137.39H494.09a.67.67,0,0,1-.72-.61v-16a.67.67,0,0,1,.72-.61h91.12a.67.67,0,0,1,.72.61v16A.67.67,0,0,1,585.21-137.39Z" transform="translate(0 421)"/><text class="cls-24" transform="matrix(1, 0, 0, 1, 513.39, 164.76)">N<tspan class="cls-25" x="13.41" y="0">E</tspan><tspan x="23.81" y="0">WS </tspan><tspan class="cls-26"><tspan x="-1.68" y="23.06">T</tspan><tspan class="cls-27" x="8.12" y="23.06">O</tspan><tspan class="cls-28" x="22.13" y="23.06">D</tspan><tspan class="cls-29" x="35.43" y="23.06">A</tspan><tspan class="cls-27" x="46.44" y="23.06">Y</tspan></tspan></text><rect class="cls-21" x="492.4" y="194.84" width="94.51" height="2.74"/><rect class="cls-21" x="493.69" y="149.64" width="5.48" height="38.35"/><rect class="cls-30" x="499.17" y="149.64" width="5.48" height="38.35"/><rect class="cls-31" x="547.11" y="211.27" width="39.72" height="3.86"/><rect class="cls-31" x="547.11" y="218.99" width="39.72" height="3.86"/><rect class="cls-31" x="547.11" y="226.71" width="39.72" height="3.86"/><rect class="cls-31" x="493.69" y="292.09" width="58.9" height="3.86"/><rect class="cls-31" x="493.69" y="299.81" width="58.9" height="3.86"/><rect class="cls-31" x="493.69" y="307.53" width="58.9" height="3.86"/><rect class="cls-31" x="547.11" y="234.43" width="39.72" height="3.86"/><rect class="cls-31" x="547.11" y="242.15" width="39.72" height="3.86"/><rect class="cls-31" x="547.11" y="249.87" width="39.72" height="3.86"/><rect class="cls-32" x="500.09" y="-108.06" width="15.72" height="28.73" transform="translate(601.03 835.36) rotate(-89.93)"/><rect class="cls-23" x="532.46" y="-108.02" width="15.72" height="28.73" transform="translate(633.33 867.78) rotate(-89.93)"/><rect class="cls-33" x="564.6" y="-107.98" width="15.72" height="28.73" transform="translate(665.39 899.96) rotate(-89.93)"/><rect class="cls-22" x="555.33" y="292.09" width="30.13" height="19.18"/><path class="cls-34" d="M519.29-171.71a17.23,17.23,0,0,1-17.21-17.21,15.64,15.64,0,0,1,.1-1.8l0-.45H518a2.42,2.42,0,0,0,2.45-2.36v-.16a2.35,2.35,0,0,0-2.39-2.18h-3.51a1.57,1.57,0,0,1-1.58-1.49,1.55,1.55,0,0,1,.43-1.12,1.54,1.54,0,0,1,1.11-.47h6.67l4,.08a2.39,2.39,0,0,0,1.71-.73,2.44,2.44,0,0,0,.67-1.75,2.46,2.46,0,0,0-2.46-2.31h-15l2.12-1a17,17,0,0,1,7.07-1.51,17.22,17.22,0,0,1,17.21,17.2,17.33,17.33,0,0,1-.39,3.67l-.09.39h-17.5a2.52,2.52,0,0,0-2.52,2.52,2.52,2.52,0,0,0,2.52,2.52h3.89l-.15.61a2.36,2.36,0,0,0-.07.58,2.52,2.52,0,0,0,2.52,2.52h6.17l-1.18.9A17.05,17.05,0,0,1,519.29-171.71Zm-16.16-18.46c0,.42-.05.84-.05,1.25a16.23,16.23,0,0,0,16.21,16.21,16,16,0,0,0,8.5-2.4h-3.08a3.53,3.53,0,0,1-3.52-3.52,1.21,1.21,0,0,1,0-.19h-2.68a3.53,3.53,0,0,1-3.52-3.52,3.53,3.53,0,0,1,3.52-3.52h16.69a16.44,16.44,0,0,0,.29-3.06,16.23,16.23,0,0,0-7-13.37,3.4,3.4,0,0,1,.16.9,3.41,3.41,0,0,1-1,2.48,3.37,3.37,0,0,1-2.44,1l-4-.08h-6.67a.55.55,0,0,0-.39.16.54.54,0,0,0-.15.4.57.57,0,0,0,.58.52h3.51a3.35,3.35,0,0,1,3.39,3.13,1.77,1.77,0,0,1,0,.23,3.43,3.43,0,0,1-3.45,3.34Zm12.26-14.49h7.78A16.63,16.63,0,0,0,515.39-204.66Z" transform="translate(0 421)"/><path class="cls-34" d="M529.57-175.11h-4.86a3.53,3.53,0,0,1-3.52-3.52,1.21,1.21,0,0,1,0-.19h-2.68a3.53,3.53,0,0,1-3.52-3.52,3.53,3.53,0,0,1,3.52-3.52h17.72l-.13.61a17.24,17.24,0,0,1-6.41,10Zm-11.05-9.75a2.52,2.52,0,0,0-2.52,2.52,2.52,2.52,0,0,0,2.52,2.52h3.89l-.15.61a2.36,2.36,0,0,0-.07.58,2.52,2.52,0,0,0,2.52,2.52h4.52a16.28,16.28,0,0,0,5.76-8.75Z" transform="translate(0 421)"/><path class="cls-34" d="M518-190.17H502.12l.06-.55a17.26,17.26,0,0,1,10-13.89l.21,0h12.72a3.47,3.47,0,0,1,3.46,3.27,3.41,3.41,0,0,1-1,2.48,3.37,3.37,0,0,1-2.44,1l-4-.08h-6.67a.55.55,0,0,0-.39.16.54.54,0,0,0-.15.4.57.57,0,0,0,.58.52h3.51a3.35,3.35,0,0,1,3.39,3.13,1.77,1.77,0,0,1,0,.23A3.43,3.43,0,0,1,518-190.17Zm-14.8-1H518a2.42,2.42,0,0,0,2.45-2.36v-.16a2.35,2.35,0,0,0-2.39-2.18h-3.51a1.57,1.57,0,0,1-1.58-1.49,1.55,1.55,0,0,1,.43-1.12,1.54,1.54,0,0,1,1.11-.47h6.67l4,.08a2.39,2.39,0,0,0,1.71-.73,2.44,2.44,0,0,0,.67-1.75,2.46,2.46,0,0,0-2.46-2.31H512.54A16.26,16.26,0,0,0,503.24-191.17Z" transform="translate(0 421)"/><path class="cls-19" d="M370.22-234.83a14.87,14.87,0,0,0,4.26-10.42h0a14.9,14.9,0,0,0-8.3-13.35,42.1,42.1,0,0,0,.51-6.49h0a42.3,42.3,0,0,0-42.3-42.31h0a42.31,42.31,0,0,0-42.31,42.31h0a42.88,42.88,0,0,0,.51,6.55,14.9,14.9,0,0,0-8.17,13.29h0a14.81,14.81,0,0,0,2.89,8.79,39,39,0,0,0-8.46,24.31h0a39.22,39.22,0,0,0,39.22,39.22h0a39.14,39.14,0,0,0,32-16.5,27.07,27.07,0,0,0,15,4.5h0a27.28,27.28,0,0,0,27.28-27.28h0A27.23,27.23,0,0,0,370.22-234.83Z" transform="translate(0 421)"/><path class="cls-20" d="M365.21-243a13.16,13.16,0,0,0,3.78-9.25h0a13.21,13.21,0,0,0-7.36-11.85,37.73,37.73,0,0,0,.45-5.76h0a37.56,37.56,0,0,0-37.56-37.57h0A37.57,37.57,0,0,0,287-269.83h0a37,37,0,0,0,.45,5.81,13.24,13.24,0,0,0-7.26,11.8h0a13.15,13.15,0,0,0,2.57,7.81,34.64,34.64,0,0,0-7.51,21.59h0A34.82,34.82,0,0,0,310-188h0a34.8,34.8,0,0,0,28.38-14.65,24,24,0,0,0,13.29,4h0a24.22,24.22,0,0,0,24.22-24.22h0A24.18,24.18,0,0,0,365.21-243Z" transform="translate(0 421)"/><path class="cls-35" d="M389.15-155.58l-7.73-19.31a15.28,15.28,0,0,0-9.92-9l-30.33-8.9a20.46,20.46,0,0,0-5.66-.79H309.33a20.46,20.46,0,0,0-5.66.79l-30.1,8.86a15.58,15.58,0,0,0-10.05,9.14l-8.26,20.66a.57.57,0,0,0,.13.63l2.85,2.89,17.81,18,.87,4.49.21,10.36,1.39,63.19h87.8l1.34-60.35.26-13.2.91-4.72L386-150.19l2.59-2.61A2.6,2.6,0,0,0,389.15-155.58Z" transform="translate(0 421)"/><path class="cls-36" d="M205.05-162.88l-7.13-17.84a14.22,14.22,0,0,0-9.17-8.33l-28-8.22a19.25,19.25,0,0,0-5.23-.73H131.32a19.25,19.25,0,0,0-5.23.73l-27.81,8.19A14.38,14.38,0,0,0,89-180.63l-7.63,19.08a.52.52,0,0,0,.12.58l2.63,2.67,16.46,16.65.8,4.15.19,9.57,1.29,58.37H184l1.24-55.75.24-12.19.84-4.37,15.87-16,2.38-2.41A2.38,2.38,0,0,0,205.05-162.88Z" transform="translate(0 421)"/><path class="cls-37" d="M335.69-133l19.44-55.73-8.88-2.6-14.32,41c-2,5.71-16.86,5.71-18.84,0l-14.46-41-8.87,2.61L309.39-133C312.15-125,332.93-125,335.69-133Z" transform="translate(0 421)"/><path class="cls-38" d="M340.61-192.94c0,.1-.05.21-.09.31l-11,31.42c-1.49,4.28-12.65,4.28-14.13,0l-11.07-31.41c0-.11-.07-.22-.1-.33-.2,0-.4.09-.59.15l-5,1.48,14.46,41c2,5.71,16.86,5.71,18.84,0l14.32-41-5.08-1.49C341-192.86,340.8-192.89,340.61-192.94Z" transform="translate(0 421)"/><path class="cls-39" d="M315.43-161.21c1.48,4.28,12.64,4.28,14.13,0l11-31.42c0-.1.06-.21.09-.31a20.44,20.44,0,0,0-5.1-.65H309.33a20.66,20.66,0,0,0-5.07.64c0,.11.06.22.1.33Z" transform="translate(0 421)"/><path class="cls-19" d="M366.55-51.15a2,2,0,0,1-2.13,2s-5.41.93-28.55-.28C305-51,278-53,278-53l0-13.47H366.5Z" transform="translate(0 421)"/><path class="cls-19" d="M277-130.19a.5.5,0,0,1-.5-.5V-147a.5.5,0,0,1,.5-.5.5.5,0,0,1,.5.5v16.31A.5.5,0,0,1,277-130.19Z" transform="translate(0 421)"/><path class="cls-19" d="M368-130.19a.5.5,0,0,1-.5-.5V-147a.5.5,0,0,1,.5-.5.5.5,0,0,1,.5.5v16.31A.5.5,0,0,1,368-130.19Z" transform="translate(0 421)"/><path class="cls-40" d="M351.24-253.54v-8.92q0-.85-.06-1.71a1.67,1.67,0,0,0-1.67-1.55H337.05a1.31,1.31,0,0,1-1.31-1.31l-.05-5.89a.25.25,0,0,0-.47-.13l-3.48,6a1.92,1.92,0,0,1-1.83,1.32l-7.68-.09a1.35,1.35,0,0,1-1.31-1.6l2.38-13.22a.25.25,0,0,0-.48-.15c-1.87,4-6.36,13.9-6.36,13.9a1.92,1.92,0,0,1-1.77,1.16H303.13l-.63,0a1.75,1.75,0,0,1-1.7-1.78s-.19-9.51-.22-9.33l-1.53,9.3a2.17,2.17,0,0,1-2.15,1.83s-1.1,0-1.87,0a.74.74,0,0,0-.75.72c-.09,2.77-.06,11.42-.06,11.42h-.15a9.15,9.15,0,0,0-9,6.94A9.11,9.11,0,0,0,294-235.36h.27v2.29a27.3,27.3,0,0,0,15.37,24.54v13.92a5.75,5.75,0,0,0,.34,2l7.66,21.74c1,3,8.75,3,9.77,0L335-192.65a5.83,5.83,0,0,0,.33-1.95V-207a6.34,6.34,0,0,0-.11-1.16,27.31,27.31,0,0,0,16.07-24.88v-2.3a9.09,9.09,0,0,0,8.85-9.08A9.09,9.09,0,0,0,351.24-253.54Z" transform="translate(0 421)"/><g class="cls-41"><path class="cls-42" d="M350.88-252.83v-8.5c0-.55,0-1.09-.06-1.63-.06-.83-1.83-.58-1.83-.58C355-239,341-189,299-222c0,0-1,6,11.2,13v12.26a5.76,5.76,0,0,0,.32,1.88l7.3,20.7c1,2.83,8.33,2.83,9.31,0l7.23-20.71a5.63,5.63,0,0,0,.31-1.86v-11.84c0-.38,0,.25-.11-.1,9-4.09,16.32-14.16,16.32-24.71v-2.19c4.68-.12,7.43-3.95,7.43-8.65S355.56-252.71,350.88-252.83Z" transform="translate(0 421)"/></g><path class="cls-42" d="M293.66-237a3.2,3.2,0,0,1-3.2,3.2,3.2,3.2,0,0,1-3.2-3.2,3.2,3.2,0,0,1,3.2-3.2A3.2,3.2,0,0,1,293.66-237Z" transform="translate(0 421)"/><path class="cls-42" d="M358.49-237a3.2,3.2,0,0,1-3.2,3.2,3.2,3.2,0,0,1-3.2-3.2,3.2,3.2,0,0,1,3.2-3.2A3.2,3.2,0,0,1,358.49-237Z" transform="translate(0 421)"/><path class="cls-42" d="M286.94-244.55a.41.41,0,0,1-.42-.41,5.62,5.62,0,0,1,5.54-6,.41.41,0,0,1,.41.41.41.41,0,0,1-.41.42c-.19,0-4.71.08-4.71,5.19A.41.41,0,0,1,286.94-244.55Z" transform="translate(0 421)"/><path class="cls-42" d="M357.69-244.55a.41.41,0,0,1-.41-.41c0-5.13-4.52-5.19-4.71-5.19a.41.41,0,0,1-.41-.42.41.41,0,0,1,.41-.41,5.62,5.62,0,0,1,5.54,6A.41.41,0,0,1,357.69-244.55Z" transform="translate(0 421)"/><path class="cls-43" d="M321.54-205.74a27.14,27.14,0,0,1-11.87-2.75v9.15l25.61-8.52-.37-.2a27.26,27.26,0,0,1-11,2.32Z" transform="translate(0 421)"/><path class="cls-44" d="M308.07-233h-5.61a3.2,3.2,0,0,1-3.2-3.2h0a3.2,3.2,0,0,1,3.2-3.2h5.61a3.2,3.2,0,0,1,3.2,3.2h0A3.2,3.2,0,0,1,308.07-233Z" transform="translate(0 421)"/><path class="cls-44" d="M341.69-233h-5.61a3.2,3.2,0,0,1-3.2-3.2h0a3.2,3.2,0,0,1,3.2-3.2h5.61a3.2,3.2,0,0,1,3.2,3.2h0A3.2,3.2,0,0,1,341.69-233Z" transform="translate(0 421)"/><path class="cls-42" d="M318.26-214.33a.42.42,0,0,1-.21-.06.43.43,0,0,1-.15-.57,4.85,4.85,0,0,1,4.17-2.41,4.85,4.85,0,0,1,4.18,2.41.43.43,0,0,1-.15.57.42.42,0,0,1-.57-.15,4,4,0,0,0-3.46-2,4,4,0,0,0-3.45,2A.42.42,0,0,1,318.26-214.33Z" transform="translate(0 421)"/><path class="cls-19" d="M309.36-244.39h0a1.67,1.67,0,0,1-1.67-1.67v-3.34a1.67,1.67,0,0,1,1.67-1.67h0A1.67,1.67,0,0,1,311-249.4v3.34A1.67,1.67,0,0,1,309.36-244.39Z" transform="translate(0 421)"/><path class="cls-19" d="M335-244.39h0a1.67,1.67,0,0,1-1.67-1.67v-3.34a1.67,1.67,0,0,1,1.67-1.67h0a1.67,1.67,0,0,1,1.67,1.67v3.34A1.67,1.67,0,0,1,335-244.39Z" transform="translate(0 421)"/><path class="cls-42" d="M326.3-234.94h-6a1.49,1.49,0,0,1-1.34-.85,1.47,1.47,0,0,1,.19-1.58,10.2,10.2,0,0,0,2.26-6.4v-5.7a.41.41,0,0,1,.42-.41.41.41,0,0,1,.41.41v5.7a11,11,0,0,1-2.45,6.92.66.66,0,0,0-.08.7.65.65,0,0,0,.59.38h6a.41.41,0,0,1,.42.41A.42.42,0,0,1,326.3-234.94Z" transform="translate(0 421)"/><path class="cls-19" d="M331.11-221.73h-3.53a5.13,5.13,0,0,1-5.12-5.11v-1.72a2.75,2.75,0,0,1,2.74-2.74h8.39a2.65,2.65,0,0,1,2.63,2.63v1.83A5.13,5.13,0,0,1,331.11-221.73Z" transform="translate(0 421)"/><path class="cls-45" d="M331.63-222.44h-4.58a1.87,1.87,0,0,1-1.87-1.87h0a1.87,1.87,0,0,1,1.87-1.87h4.58a1.87,1.87,0,0,1,1.87,1.87h0A1.87,1.87,0,0,1,331.63-222.44Z" transform="translate(0 421)"/><path class="cls-19" d="M334.77-257.41a6.24,6.24,0,0,0,2.41.81c.89.17,1.78.37,2.55.57s1.64.45,2.5.73a6.11,6.11,0,0,0,2.5.46c.73-.11,1.2-.84.68-2a7,7,0,0,0-4.68-3.34,6.82,6.82,0,0,0-5.64.67C334.09-258.74,334.18-257.86,334.77-257.41Z" transform="translate(0 421)"/><path class="cls-19" d="M302.66-254.65a6.08,6.08,0,0,0,2.48-.56c.85-.32,1.71-.62,2.47-.85s1.64-.46,2.52-.68a6.15,6.15,0,0,0,2.37-.91c.56-.48.59-1.34-.48-2.08a7,7,0,0,0-5.72-.41,6.76,6.76,0,0,0-4.46,3.52C301.39-255.43,301.92-254.73,302.66-254.65Z" transform="translate(0 421)"/><path class="cls-19" d="M350.68-253.16a2.25,2.25,0,0,0-1.62-.68H329.63a2.27,2.27,0,0,0-2.13,1.51,11.58,11.58,0,0,0-10,0,2.24,2.24,0,0,0-.47-.72,2.22,2.22,0,0,0-1.62-.7L296-253.84a2.12,2.12,0,0,0-1.6.66,2.26,2.26,0,0,0-.67,1.61v6.31c0,6,4.44,10.9,9.89,10.9h4.18c5.45,0,9.88-4.89,9.88-10.9v-5.31a10.09,10.09,0,0,1,9.71,0v5.27c0,6,4.43,10.9,9.88,10.9h4.18c5.45,0,9.89-4.89,9.89-10.9v-6.27A2.3,2.3,0,0,0,350.68-253.16ZM316-245.26c0,5.09-3.69,9.24-8.22,9.24H303.6c-4.53,0-8.22-4.15-8.22-9.24v-6.31a.6.6,0,0,1,.17-.43.64.64,0,0,1,.43-.18h0l19.42.06a.61.61,0,0,1,.44.19.59.59,0,0,1,.16.44Zm33.66,0c0,5.09-3.69,9.24-8.23,9.24h-4.18c-4.53,0-8.22-4.15-8.22-9.24v-6.32a.6.6,0,0,1,.6-.6h19.43a.6.6,0,0,1,.43.18.63.63,0,0,1,.17.43Z" transform="translate(0 421)"/><path class="cls-40" d="M276.05-132.6l-17.81-18-11,49.14a11.22,11.22,0,0,0,8.51,13.4l3.08.68a11.21,11.21,0,0,0,13.39-8.5l4.88-21.85-.21-10.36Z" transform="translate(0 421)"/><path class="cls-46" d="M276.05-132.6l-17.81-18-11,49.14a11.22,11.22,0,0,0,8.51,13.4l3.08.68a11.21,11.21,0,0,0,13.39-8.5l4.88-21.85-.21-10.36Z" transform="translate(0 421)"/><polygon class="cls-43" points="263.52 275.72 276.85 304.9 276.85 288.09 263.52 275.72"/><path class="cls-40" d="M311.78-152l2.3-8.42a11.41,11.41,0,0,1,4.6-6.45l2.11-1.44a2.32,2.32,0,0,1,3.62,2.05l-.1,1.71a13.2,13.2,0,0,1-11.19,12.34Z" transform="translate(0 421)"/><path class="cls-47" d="M311.78-152l2.3-8.42a11.41,11.41,0,0,1,4.6-6.45l2.11-1.44a2.32,2.32,0,0,1,3.62,2.05l-.1,1.71a13.2,13.2,0,0,1-11.19,12.34Z" transform="translate(0 421)"/><circle class="cls-19" cx="326.16" cy="226.13" r="8.34"/><rect class="cls-19" x="322.38" y="236.91" width="7.56" height="30.19" rx="1.52"/><path class="cls-48" d="M324.79-153.9h0a2.11,2.11,0,0,1-2.12-2.11v-26a2.11,2.11,0,0,1,2.11-2.12h0A2.11,2.11,0,0,1,326.9-182v26A2.11,2.11,0,0,1,324.79-153.9Z" transform="translate(0 421)"/><rect class="cls-30" x="317.83" y="233.07" width="16.67" height="13.89" rx="1.49"/><path class="cls-49" d="M326.27-174h-6.66a1.5,1.5,0,0,1-1.49-1.5v-10.9a1.5,1.5,0,0,1,1.49-1.5h6.66Z" transform="translate(0 421)"/><path class="cls-15" d="M326.33-179.4a.49.49,0,0,1-.51.4h-1.27a.49.49,0,0,1-.51-.4l-.32-2.63c0-.22,0-.46-.05-.69h-.12c0,.23,0,.47-.05.7l-.32,2.62a.48.48,0,0,1-.51.39h-1.28a.48.48,0,0,1-.5-.4l-.59-4.35h1.47l.24,2.92c0,.23,0,.48,0,.79h.11c0-.24.08-.55.11-.8l.32-2.46a.47.47,0,0,1,.5-.44h1.07a.5.5,0,0,1,.5.44l.32,2.48c0,.24.07.53.1.78h.11c0-.25,0-.54,0-.78l.23-2.92h1.48Z" transform="translate(0 421)"/><path class="cls-21" d="M331.82-179.37a.33.33,0,0,1-.37.37h-.65c-.22,0-.32-.1-.42-.31l-1.24-2.53a3.67,3.67,0,0,1-.29-.74h-.08a4.85,4.85,0,0,1,.05.76V-179h-1v-4.37a.34.34,0,0,1,.38-.38h.64c.22,0,.32.11.42.31l1.2,2.46c.11.21.24.5.35.77h.06c0-.27,0-.53,0-.8v-2.74h1Z" transform="translate(0 421)"/><path class="cls-50" d="M335.3-193.48H317.24a.7.7,0,0,1-.69-.7h0a.69.69,0,0,1,.69-.69H335.3a.7.7,0,0,1,.7.69h0A.71.71,0,0,1,335.3-193.48Z" transform="translate(0 421)"/><path class="cls-40" d="M335.29-168.4a1.21,1.21,0,0,0-1.83-.31l-8.82,4.41a27.28,27.28,0,0,0-9.09,7.36,24.71,24.71,0,0,1-3.17,3.74l-60.32,47.43a11,11,0,0,0-.68,15.94,14.38,14.38,0,0,0,20.65,0l49-52.52c2.74-.73,6.92-2.51,12-6.85C340.63-155.57,337-165,335.29-168.4Z" transform="translate(0 421)"/><path class="cls-40" d="M398.36-94.84,386-150.19l-17.17,17.36-.91,4.72-.26,13.2,5.72,25.64a11.22,11.22,0,0,0,13.39,8.51l3.08-.69A11.22,11.22,0,0,0,398.36-94.84Z" transform="translate(0 421)"/><path class="cls-46" d="M398.36-94.84,386-150.19l-17.17,17.36-.91,4.72-.26,13.2,5.72,25.64a11.22,11.22,0,0,0,13.39,8.51l3.08-.69A11.22,11.22,0,0,0,398.36-94.84Z" transform="translate(0 421)"/><polygon class="cls-43" points="381 275.72 367.67 304.9 368 289 381 275.72"/><path class="cls-40" d="M432-144.25a8.51,8.51,0,0,0,14,1.16l4.51-5.54a3,3,0,0,0,.24-3.8h0a3,3,0,0,0-4.08-.83l-6.77,4.2L432-144.25Z" transform="translate(0 421)"/><g class="cls-51"><path class="cls-42" d="M432-144.25a8.51,8.51,0,0,0,14,1.16l4.51-5.54a3,3,0,0,0,.24-3.8h0a3,3,0,0,0-4.08-.83l-6.77,4.2L432-144.25Z" transform="translate(0 421)"/></g><path class="cls-40" d="M464.59-153.22a5.14,5.14,0,0,0-4.85,2.53,9.63,9.63,0,0,1-9.37,4.74c-6.17-.69-15.38-1.05-19.65,2.14l0,.12c-.1.08-.21.13-.31.22l-52.3,44.64a10.33,10.33,0,0,0-.71,15,13.5,13.5,0,0,0,19.38.11l43.89-44.78,15.86-3a5.63,5.63,0,0,0,4.89-2.63l7-11.14A5.14,5.14,0,0,0,464.59-153.22Z" transform="translate(0 421)"/><path class="cls-52" d="M516.49-406h62.9a7.68,7.68,0,0,1,7.68,7.68v62.9a7.68,7.68,0,0,1-7.68,7.68H528.82a4.25,4.25,0,0,0-2.84,1.09l-10.12,9.21a4.22,4.22,0,0,1-7.05-3.12v-77.76A7.68,7.68,0,0,1,516.49-406Z" transform="translate(0 421)"/><path class="cls-53" d="M516.49-406h62.9a7.68,7.68,0,0,1,7.68,7.68v62.9a7.68,7.68,0,0,1-7.68,7.68H528.82a4.25,4.25,0,0,0-2.84,1.09l-10.12,9.21a4.22,4.22,0,0,1-7.05-3.12v-77.76A7.68,7.68,0,0,1,516.49-406Z" transform="translate(0 421)"/><path class="cls-54" d="M519.53-403h56.82a6.94,6.94,0,0,1,6.94,6.94v56.82a6.94,6.94,0,0,1-6.94,6.94H530.67a3.78,3.78,0,0,0-2.56,1L519-323a3.81,3.81,0,0,1-6.37-2.81v-70.25A6.94,6.94,0,0,1,519.53-403Z" transform="translate(0 421)"/><path class="cls-55" d="M535.69-358.71l0,0,0,0Z" transform="translate(0 421)"/><polygon class="cls-1" points="529.24 58.26 531.35 68.78 535.67 62.27 529.24 58.26"/><path class="cls-1" d="M574.17-385.73l-44,23a.88.88,0,0,1-.89-.05l0,0,6.43,4h0l0,0a.85.85,0,0,1,.36-.84l38.44-26.34-.24.12A.2.2,0,0,1,574.17-385.73Z" transform="translate(0 421)"/><path class="cls-11" d="M574.25-385.77a.2.2,0,0,1-.08,0l-44,23a.88.88,0,0,1-.89-.05l0,0,2.11,10.52,4.32-6.51h0l0,0a.85.85,0,0,1,.36-.84l38.44-26.34Z" transform="translate(0 421)"/><path class="cls-56" d="M574.55-385.95l-.06.06" transform="translate(0 421)"/><path class="cls-1" d="M535.69-358.71v0l2.88,3.27,6.9,7.26a6.26,6.26,0,0,0,10-1.24l19-36.49-38.44,26.34A.85.85,0,0,0,535.69-358.71Z" transform="translate(0 421)"/><path class="cls-1" d="M530.17-362.71l44-23a.2.2,0,0,0,.08,0c.07,0,.15-.1-.11-.05l-52.78,10.64a3,3,0,0,0-1.2,5.3l9.05,7.08.07,0A.88.88,0,0,0,530.17-362.71Z" transform="translate(0 421)"/><polygon class="cls-1" points="535.69 62.3 535.67 62.27 535.67 62.27 535.67 62.27 531.35 68.78 538.57 65.58 538.57 65.58 535.69 62.3"/><polygon class="cls-10" points="535.69 62.3 535.67 62.27 535.67 62.27 535.67 62.27 531.35 68.78 538.57 65.58 538.57 65.58 535.69 62.3"/><rect class="cls-42" x="237.31" y="12.72" width="69.62" height="24.7" rx="1.37"/><text class="cls-57" transform="translate(247.35 34.48)">LIVE</text><path class="cls-58" d="M181.07-213.79V-266a6.37,6.37,0,0,1,6.37-6.37h52.22A6.37,6.37,0,0,1,246-266v42a3.51,3.51,0,0,0,.91,2.35l7.65,8.41a3.5,3.5,0,0,1-2.59,5.85H187.44A6.38,6.38,0,0,1,181.07-213.79Z" transform="translate(0 421)"/><path class="cls-53" d="M180.07-213.79V-266a6.37,6.37,0,0,1,6.37-6.37h52.22A6.37,6.37,0,0,1,245-266v42a3.51,3.51,0,0,0,.91,2.35l7.65,8.41a3.5,3.5,0,0,1-2.59,5.85H186.44A6.38,6.38,0,0,1,180.07-213.79Z" transform="translate(0 421)"/><path class="cls-59" d="M181.07-214.73v-46.92a5.86,5.86,0,0,1,6-5.72h49.06a5.86,5.86,0,0,1,6,5.72v37.73a3.07,3.07,0,0,0,.86,2.11l7.18,7.56a3.13,3.13,0,0,1-2.43,5.25H187.06A5.86,5.86,0,0,1,181.07-214.73Z" transform="translate(0 421)"/><path class="cls-1" d="M206.81-225.61a5.28,5.28,0,0,1,1.43-3.79,5.26,5.26,0,0,1,4-1.48,5.24,5.24,0,0,1,4,1.48,5.28,5.28,0,0,1,1.43,3.79,5.25,5.25,0,0,1-1.43,3.79,5.25,5.25,0,0,1-4,1.49,5.26,5.26,0,0,1-4-1.49A5.25,5.25,0,0,1,206.81-225.61Zm10.33-28.29c0,.86,0,2.11-.06,3.74s-.11,3.38-.22,5.27-.26,3.78-.45,5.67-.41,3.53-.67,4.91a2.83,2.83,0,0,1-.68.34,7.62,7.62,0,0,1-.95.28c-.34.07-.67.13-1,.17s-.64.05-.9.05a6.61,6.61,0,0,1-2.72-.5,2.52,2.52,0,0,1-1.38-2,32.19,32.19,0,0,1-.47-3.93c-.13-1.75-.26-3.66-.37-5.72s-.19-4.1-.25-6.12c0-1,0-1.88-.06-2.72a3.44,3.44,0,0,1,2.5-3.42h0a11.11,11.11,0,0,1,2.83-.37,5.38,5.38,0,0,1,3.57,1.07A4,4,0,0,1,217.14-253.9Z" transform="translate(0 421)"/><g class="cls-60"><path class="cls-30" d="M212.08-230.88A5.22,5.22,0,0,1,216-229.4a5.25,5.25,0,0,1,1.44,3.79,5.21,5.21,0,0,1-1.44,3.79,5.22,5.22,0,0,1-3.95,1.49c-.85,0,1.92-.67,1.92-5.67S211.23-230.88,212.08-230.88Zm4.94-23c0,.86,0,2.11-.06,3.74s-.11,3.38-.22,5.27-.27,3.78-.45,5.67-.42,3.53-.68,4.91a2.74,2.74,0,0,1-.67.34,8.34,8.34,0,0,1-1,.28c-.33.07-.67.13-1,.17s-.63.05-.89.05,1.65-5.67,1.67-11.58c0-6.44-1.82-13.17-1.56-13.17a5.37,5.37,0,0,1,3.56,1.07A4,4,0,0,1,217-253.9Z" transform="translate(0 421)"/></g></g></svg>