<svg id="Layer_1" data-name="Layer 1" xmlns="http://www.w3.org/2000/svg" viewBox="0 0 390.75 278.45"><defs><style>.cls-1{opacity:0.35;}.cls-2,.cls-30,.cls-53{fill:#fff;}.cls-18,.cls-26,.cls-27,.cls-3,.cls-4,.cls-5,.cls-7{fill:#4f66af;}.cls-3{opacity:0.44;}.cls-4{opacity:0.29;}.cls-33,.cls-5{opacity:0.18;}.cls-11,.cls-12,.cls-13,.cls-16,.cls-17,.cls-21,.cls-29,.cls-44,.cls-45,.cls-6{fill:#6895ce;}.cls-6,.cls-7,.cls-8{opacity:0.6;}.cls-10,.cls-19,.cls-28,.cls-8,.cls-9{fill:#3f499c;}.cls-10{font-size:23.51px;letter-spacing:0.04em;}.cls-10,.cls-19,.cls-53{font-family:Exo2-Black, Exo2 Black;font-weight:800;}.cls-11,.cls-12,.cls-13,.cls-21{font-family:Exo2-Bold, Exo2 Bold;font-weight:700;}.cls-12{letter-spacing:0.05em;}.cls-13{letter-spacing:0.04em;}.cls-14,.cls-33,.cls-34,.cls-35,.cls-49{fill:#383449;}.cls-15,.cls-32{fill:#edf1f7;}.cls-15{opacity:0.03;}.cls-17,.cls-27{opacity:0.36;}.cls-18,.cls-28,.cls-29,.cls-30{opacity:0.89;}.cls-19{font-size:14.83px;letter-spacing:0.04em;}.cls-20{letter-spacing:0.05em;}.cls-21{letter-spacing:0.01em;}.cls-22{letter-spacing:0.04em;}.cls-23{letter-spacing:0.03em;}.cls-24{letter-spacing:-0.04em;}.cls-25{letter-spacing:0.04em;}.cls-31{fill:#ca2128;}.cls-32{opacity:0.06;}.cls-34{opacity:0.32;}.cls-35{opacity:0.42;}.cls-36{fill:#f8dcd2;}.cls-37{opacity:0.13;}.cls-38,.cls-39,.cls-42,.cls-43{fill:#f0929d;}.cls-39,.cls-47{opacity:0.37;}.cls-40{fill:#f7a9aa;opacity:0.68;}.cls-41{fill:#f69da5;}.cls-42,.cls-45{opacity:0.12;}.cls-43{opacity:0.27;}.cls-44{opacity:0.17;}.cls-46{fill:#dcdbdb;}.cls-48{fill:#465fab;}.cls-49{opacity:0.11;}.cls-50{fill:#3d60ac;}.cls-51{fill:#accded;}.cls-52{fill:none;stroke:#c0def4;stroke-linecap:round;stroke-linejoin:round;stroke-width:0;}.cls-53{font-size:20.54px;letter-spacing:0.04em;}.cls-54{fill:#b33b26;}.cls-55{fill:#ef3f24;}.cls-56{opacity:0.1;}</style></defs><g class="cls-1"><path class="cls-2" d="M347.55,321.28c-20.23,0-36.68-18.77-36.68-41.83s16.45-41.84,36.68-41.84,36.67,18.77,36.67,41.84S367.77,321.28,347.55,321.28Zm0-83c-19.89,0-36.07,18.46-36.07,41.14s16.18,41.13,36.07,41.13,36.06-18.45,36.06-41.13S367.43,238.31,347.55,238.31Z" transform="translate(-53.5 -203.45)"/><path class="cls-2" d="M347.55,311.52c-20.23,0-36.68-14.39-36.68-32.07s16.45-32.07,36.68-32.07,36.67,14.38,36.67,32.07S367.77,311.52,347.55,311.52Zm0-63.45c-19.89,0-36.07,14.08-36.07,31.38s16.18,31.37,36.07,31.37,36.06-14.07,36.06-31.37S367.43,248.07,347.55,248.07Z" transform="translate(-53.5 -203.45)"/><path class="cls-2" d="M347.55,303.5c-20.23,0-36.68-10.79-36.68-24.05s16.45-24.06,36.68-24.06,36.67,10.79,36.67,24.06S367.77,303.5,347.55,303.5Zm0-47.41c-19.89,0-36.07,10.48-36.07,23.36s16.18,23.35,36.07,23.35,36.06-10.47,36.06-23.35S367.43,256.09,347.55,256.09Z" transform="translate(-53.5 -203.45)"/><path class="cls-2" d="M347.55,297.57c-20.23,0-36.68-8.13-36.68-18.12s16.45-18.13,36.68-18.13,36.67,8.13,36.67,18.13S367.77,297.57,347.55,297.57Zm0-35.55c-19.89,0-36.07,7.82-36.07,17.43s16.18,17.43,36.07,17.43,36.06-7.82,36.06-17.43S367.43,262,347.55,262Z" transform="translate(-53.5 -203.45)"/><path class="cls-2" d="M347.55,286.42c-18,0-36.68-2.61-36.68-7s18.65-7,36.68-7,36.67,2.6,36.67,7S365.57,286.42,347.55,286.42Zm0-13.25c-21.58,0-36.07,3.25-36.07,6.28s14.49,6.27,36.07,6.27,36.06-3.24,36.06-6.27S369.12,273.17,347.55,273.17Z" transform="translate(-53.5 -203.45)"/><path class="cls-2" d="M347.55,321.28c-15.51,0-28.13-18.77-28.13-41.83s12.62-41.84,28.13-41.84,28.12,18.77,28.12,41.84S363.05,321.28,347.55,321.28Zm0-83c-15.17,0-27.51,18.46-27.51,41.14s12.34,41.13,27.51,41.13,27.5-18.45,27.5-41.13S362.71,238.31,347.55,238.31Z" transform="translate(-53.5 -203.45)"/><path class="cls-2" d="M347.55,321.28c-11.63,0-21.1-18.77-21.1-41.83s9.47-41.84,21.1-41.84,21.09,18.77,21.09,41.84S359.17,321.28,347.55,321.28Zm0-83c-11.3,0-20.48,18.46-20.48,41.14s9.18,41.13,20.48,41.13S368,302.13,368,279.45,358.84,238.31,347.55,238.31Z" transform="translate(-53.5 -203.45)"/><path class="cls-2" d="M347.55,321.28c-8.77,0-15.9-18.77-15.9-41.83s7.13-41.84,15.9-41.84,15.89,18.77,15.89,41.84S356.31,321.28,347.55,321.28Zm0-83c-8.43,0-15.29,18.46-15.29,41.14s6.86,41.13,15.29,41.13,15.28-18.45,15.28-41.13S356,238.31,347.55,238.31Z" transform="translate(-53.5 -203.45)"/><path class="cls-2" d="M347.55,321.28c-3.83,0-6.12-21.27-6.12-41.83s2.29-41.84,6.12-41.84,6.11,21.27,6.11,41.84S351.37,321.28,347.55,321.28Zm0-83c-2.66,0-5.51,16.53-5.51,41.14s2.85,41.13,5.51,41.13,5.5-16.53,5.5-41.13S350.2,238.31,347.55,238.31Z" transform="translate(-53.5 -203.45)"/></g><g class="cls-1"><path class="cls-2" d="M140.31,423.77c-20.23,0-36.68-18.77-36.68-41.83s16.45-41.84,36.68-41.84S177,358.87,177,381.94,160.53,423.77,140.31,423.77Zm0-83c-19.89,0-36.07,18.45-36.07,41.14s16.18,41.13,36.07,41.13,36.07-18.45,36.07-41.13S160.2,340.8,140.31,340.8Z" transform="translate(-53.5 -203.45)"/><path class="cls-2" d="M140.31,414c-20.23,0-36.68-14.39-36.68-32.07s16.45-32.07,36.68-32.07S177,364.25,177,381.94,160.53,414,140.31,414Zm0-63.45c-19.89,0-36.07,14.08-36.07,31.38s16.18,31.37,36.07,31.37,36.07-14.07,36.07-31.37S160.2,350.56,140.31,350.56Z" transform="translate(-53.5 -203.45)"/><path class="cls-2" d="M140.31,406c-20.23,0-36.68-10.79-36.68-24.05s16.45-24.06,36.68-24.06S177,368.67,177,381.94,160.53,406,140.31,406Zm0-47.41c-19.89,0-36.07,10.48-36.07,23.36s16.18,23.35,36.07,23.35,36.07-10.47,36.07-23.35S160.2,358.58,140.31,358.58Z" transform="translate(-53.5 -203.45)"/><path class="cls-2" d="M140.31,400.06c-20.23,0-36.68-8.13-36.68-18.12s16.45-18.13,36.68-18.13S177,371.94,177,381.94,160.53,400.06,140.31,400.06Zm0-35.55c-19.89,0-36.07,7.82-36.07,17.43s16.18,17.43,36.07,17.43,36.07-7.82,36.07-17.43S160.2,364.51,140.31,364.51Z" transform="translate(-53.5 -203.45)"/><path class="cls-2" d="M140.31,388.91c-18,0-36.68-2.61-36.68-7s18.65-7,36.68-7,36.68,2.61,36.68,7S158.34,388.91,140.31,388.91Zm0-13.25c-21.58,0-36.07,3.25-36.07,6.28s14.49,6.27,36.07,6.27,36.07-3.24,36.07-6.27S161.88,375.66,140.31,375.66Z" transform="translate(-53.5 -203.45)"/><path class="cls-2" d="M140.31,423.77c-15.51,0-28.12-18.77-28.12-41.83s12.61-41.84,28.12-41.84,28.12,18.77,28.12,41.84S155.81,423.77,140.31,423.77Zm0-83c-15.17,0-27.51,18.45-27.51,41.14s12.34,41.13,27.51,41.13,27.51-18.45,27.51-41.13S155.48,340.8,140.31,340.8Z" transform="translate(-53.5 -203.45)"/><path class="cls-2" d="M140.31,423.77c-11.63,0-21.09-18.77-21.09-41.83s9.46-41.84,21.09-41.84,21.09,18.77,21.09,41.84S151.94,423.77,140.31,423.77Zm0-83c-11.3,0-20.48,18.45-20.48,41.14s9.18,41.13,20.48,41.13,20.48-18.45,20.48-41.13S151.6,340.8,140.31,340.8Z" transform="translate(-53.5 -203.45)"/><path class="cls-2" d="M140.31,423.77c-8.77,0-15.9-18.77-15.9-41.83s7.13-41.84,15.9-41.84,15.89,18.77,15.89,41.84S149.07,423.77,140.31,423.77Zm0-83c-8.43,0-15.29,18.45-15.29,41.14s6.86,41.13,15.29,41.13,15.28-18.45,15.28-41.13S148.73,340.8,140.31,340.8Z" transform="translate(-53.5 -203.45)"/><path class="cls-2" d="M140.31,423.77c-3.83,0-6.12-21.27-6.12-41.83s2.29-41.84,6.12-41.84,6.11,21.27,6.11,41.84S144.13,423.77,140.31,423.77Zm0-83c-2.66,0-5.5,16.53-5.5,41.14s2.84,41.13,5.5,41.13,5.5-16.53,5.5-41.13S143,340.8,140.31,340.8Z" transform="translate(-53.5 -203.45)"/></g><path class="cls-2" d="M69.87,305.47a2.06,2.06,0,0,1-1.55-.75l-5-5.66a.92.92,0,0,0-.7-.32h-6.1a3.3,3.3,0,0,1-3.06-3.49v-13a3.3,3.3,0,0,1,3.06-3.49H76.11a3.31,3.31,0,0,1,3.07,3.49v13a3.31,3.31,0,0,1-3.07,3.49h-3a1.06,1.06,0,0,0-1,1.12v3.08a2.51,2.51,0,0,1-1.36,2.33A2.11,2.11,0,0,1,69.87,305.47ZM56.56,280.14a2,2,0,0,0-1.84,2.1v13a2,2,0,0,0,1.84,2.09h6.1a2,2,0,0,1,1.56.74l5,5.66a.87.87,0,0,0,1.07.24,1.1,1.1,0,0,0,.6-1v-3.08a2.38,2.38,0,0,1,2.21-2.52h3A2,2,0,0,0,78,295.25v-13a2,2,0,0,0-1.84-2.1Z" transform="translate(-53.5 -203.45)"/><path class="cls-2" d="M60.53,291a2.11,2.11,0,1,1,1.83-2.09A2,2,0,0,1,60.53,291Zm0-3.48a1.4,1.4,0,1,0,1.22,1.39A1.31,1.31,0,0,0,60.53,287.47Z" transform="translate(-53.5 -203.45)"/><path class="cls-2" d="M66.34,291.3a2.11,2.11,0,1,1,1.83-2.09A2,2,0,0,1,66.34,291.3Zm0-3.49a1.41,1.41,0,1,0,1.22,1.4A1.32,1.32,0,0,0,66.34,287.81Z" transform="translate(-53.5 -203.45)"/><path class="cls-2" d="M71.84,291.3a2.11,2.11,0,1,1,1.83-2.09A2,2,0,0,1,71.84,291.3Zm0-3.49a1.41,1.41,0,1,0,1.22,1.4A1.32,1.32,0,0,0,71.84,287.81Z" transform="translate(-53.5 -203.45)"/><path class="cls-2" d="M431.35,396.8a1.58,1.58,0,0,1-.72-.17,2.1,2.1,0,0,1-1.14-1.95v-2.41a.69.69,0,0,0-.64-.72h-2.37a2.72,2.72,0,0,1-2.52-2.87V378.54a2.72,2.72,0,0,1,2.52-2.88h15.25a2.72,2.72,0,0,1,2.52,2.88v10.14a2.72,2.72,0,0,1-2.52,2.87H437a.62.62,0,0,0-.45.21l-3.87,4.42A1.72,1.72,0,0,1,431.35,396.8Zm-4.87-19.74a1.4,1.4,0,0,0-1.3,1.48v10.14a1.41,1.41,0,0,0,1.3,1.48h2.37a2,2,0,0,1,1.86,2.11v2.41a.72.72,0,0,0,.39.67.57.57,0,0,0,.69-.16l3.87-4.41a1.72,1.72,0,0,1,1.31-.62h4.76a1.41,1.41,0,0,0,1.3-1.48V378.54a1.4,1.4,0,0,0-1.3-1.48Z" transform="translate(-53.5 -203.45)"/><path class="cls-2" d="M438.63,385.41a1.72,1.72,0,1,1,1.5-1.71A1.62,1.62,0,0,1,438.63,385.41Zm0-2.72a1,1,0,1,0,.89,1A.95.95,0,0,0,438.63,382.69Z" transform="translate(-53.5 -203.45)"/><path class="cls-2" d="M434.1,385.68a1.72,1.72,0,1,1,1.5-1.71A1.62,1.62,0,0,1,434.1,385.68Zm0-2.72a1,1,0,1,0,.89,1A1,1,0,0,0,434.1,383Z" transform="translate(-53.5 -203.45)"/><path class="cls-2" d="M429.81,385.68a1.72,1.72,0,1,1,1.5-1.71A1.62,1.62,0,0,1,429.81,385.68Zm0-2.72a1,1,0,1,0,.89,1A1,1,0,0,0,429.81,383Z" transform="translate(-53.5 -203.45)"/><path class="cls-2" d="M405.53,220.4a1.51,1.51,0,0,1-1.13-.53l-3-3.48a.35.35,0,0,0-.26-.12h-3.75a2.28,2.28,0,0,1-2.12-2.41v-8a2.28,2.28,0,0,1,2.12-2.42h12a2.28,2.28,0,0,1,2.12,2.42v8a2.28,2.28,0,0,1-2.12,2.41h-1.87a.4.4,0,0,0-.37.42v1.9a1.82,1.82,0,0,1-1,1.67A1.36,1.36,0,0,1,405.53,220.4Zm-8.18-15.55a1,1,0,0,0-.9,1v8a1,1,0,0,0,.9,1h3.75a1.49,1.49,0,0,1,1.12.53l3,3.47a.33.33,0,0,0,.4.1.42.42,0,0,0,.23-.39v-1.9a1.71,1.71,0,0,1,1.59-1.81h1.87a1,1,0,0,0,.89-1v-8a1,1,0,0,0-.89-1Z" transform="translate(-53.5 -203.45)"/><path class="cls-2" d="M399.78,211.35a1.43,1.43,0,1,1,1.25-1.42A1.34,1.34,0,0,1,399.78,211.35Zm0-2.14a.68.68,0,0,0-.63.72.69.69,0,0,0,.63.73.69.69,0,0,0,.64-.73A.68.68,0,0,0,399.78,209.21Z" transform="translate(-53.5 -203.45)"/><path class="cls-2" d="M403.35,211.57a1.43,1.43,0,1,1,1.25-1.42A1.35,1.35,0,0,1,403.35,211.57Zm0-2.15a.69.69,0,0,0-.63.73.68.68,0,0,0,.63.72.68.68,0,0,0,.64-.72A.69.69,0,0,0,403.35,209.42Z" transform="translate(-53.5 -203.45)"/><path class="cls-2" d="M406.73,211.57a1.43,1.43,0,1,1,1.25-1.42A1.35,1.35,0,0,1,406.73,211.57Zm0-2.15a.69.69,0,0,0-.63.73.68.68,0,0,0,.63.72.68.68,0,0,0,.64-.72A.69.69,0,0,0,406.73,209.42Z" transform="translate(-53.5 -203.45)"/><path class="cls-2" d="M343.35,460.68l-179-.23a1.19,1.19,0,0,1-1.14-1.23l.26-227.89a1.17,1.17,0,0,1,1.14-1.22l179,.23a1.19,1.19,0,0,1,1.14,1.23l-.26,227.89A1.18,1.18,0,0,1,343.35,460.68Z" transform="translate(-53.5 -203.45)"/><path class="cls-3" d="M343.35,460.68l-179-.23a1.19,1.19,0,0,1-1.14-1.23l.26-227.89a1.17,1.17,0,0,1,1.14-1.22l179,.23a1.19,1.19,0,0,1,1.14,1.23l-.26,227.89A1.18,1.18,0,0,1,343.35,460.68Z" transform="translate(-53.5 -203.45)"/><path class="cls-2" d="M340.47,463.77l-179-.23a1.19,1.19,0,0,1-1.14-1.23l.25-227.89a1.19,1.19,0,0,1,1.15-1.23l179,.23a1.2,1.2,0,0,1,1.15,1.23l-.26,227.89A1.19,1.19,0,0,1,340.47,463.77Z" transform="translate(-53.5 -203.45)"/><path class="cls-4" d="M340.47,463.77l-179-.23a1.19,1.19,0,0,1-1.14-1.23l.25-227.89a1.19,1.19,0,0,1,1.15-1.23l179,.23a1.2,1.2,0,0,1,1.15,1.23l-.26,227.89A1.19,1.19,0,0,1,340.47,463.77Z" transform="translate(-53.5 -203.45)"/><path class="cls-2" d="M336.68,464.38l-177.14-.23a1.19,1.19,0,0,1-1.14-1.23l.26-225a1.18,1.18,0,0,1,1.14-1.22l177.14.23a1.19,1.19,0,0,1,1.14,1.23l-.25,225A1.2,1.2,0,0,1,336.68,464.38Z" transform="translate(-53.5 -203.45)"/><path class="cls-5" d="M336.68,464.38l-177.14-.23a1.19,1.19,0,0,1-1.14-1.23l.26-225a1.18,1.18,0,0,1,1.14-1.22l177.14.23a1.19,1.19,0,0,1,1.14,1.23l-.25,225A1.2,1.2,0,0,1,336.68,464.38Z" transform="translate(-53.5 -203.45)"/><path class="cls-2" d="M332.87,465.39l-175.23-.22a1.19,1.19,0,0,1-1.15-1.23l.25-222a1.19,1.19,0,0,1,1.15-1.23l175.23.23a1.19,1.19,0,0,1,1.15,1.23l-.25,222A1.18,1.18,0,0,1,332.87,465.39Z" transform="translate(-53.5 -203.45)"/><path class="cls-6" d="M269.92,335.79l-105.41-.14a.74.74,0,0,1-.72-.77l0-38.22a.75.75,0,0,1,.72-.77L270,296a.76.76,0,0,1,.71.78l0,38.22A.75.75,0,0,1,269.92,335.79Z" transform="translate(-53.5 -203.45)"/><path class="cls-7" d="M326,381.83l-160.35-.2a1.05,1.05,0,0,1-1-1.1l0-37.58a1.06,1.06,0,0,1,1-1.09l160.34.21a1.06,1.06,0,0,1,1,1.1l0,37.57A1.05,1.05,0,0,1,326,381.83Z" transform="translate(-53.5 -203.45)"/><rect class="cls-7" x="111.68" y="191.47" width="161.38" height="3.06"/><rect class="cls-7" x="111.68" y="183.31" width="161.38" height="3.06"/><rect class="cls-7" x="111.68" y="199.63" width="137.28" height="3.06"/><path class="cls-8" d="M213.44,452.69l-49-.06a.75.75,0,0,1-.72-.77l0-38.22a.76.76,0,0,1,.72-.78l49.05.07a.74.74,0,0,1,.71.77l0,38.22A.74.74,0,0,1,213.44,452.69Z" transform="translate(-53.5 -203.45)"/><path class="cls-7" d="M270.33,452.77l-49-.06a.75.75,0,0,1-.72-.78l0-38.22a.75.75,0,0,1,.72-.77l49,.07a.74.74,0,0,1,.72.77l0,38.22A.74.74,0,0,1,270.33,452.77Z" transform="translate(-53.5 -203.45)"/><path class="cls-6" d="M326.81,452.84l-49.05-.06a.75.75,0,0,1-.71-.77l0-38.22a.75.75,0,0,1,.72-.78l49,.07a.74.74,0,0,1,.72.77l0,38.22A.75.75,0,0,1,326.81,452.84Z" transform="translate(-53.5 -203.45)"/><path class="cls-8" d="M325.37,300.62l-48.8-.07a.87.87,0,0,1-.84-.9h0a.88.88,0,0,1,.84-.91l48.8.07a.87.87,0,0,1,.84.9h0A.88.88,0,0,1,325.37,300.62Z" transform="translate(-53.5 -203.45)"/><path class="cls-8" d="M325.36,306l-48.8-.07a.87.87,0,0,1-.84-.9h0a.87.87,0,0,1,.84-.9l48.8.06a.87.87,0,0,1,.84.91h0A.87.87,0,0,1,325.36,306Z" transform="translate(-53.5 -203.45)"/><path class="cls-8" d="M325.35,311.46l-48.79-.06a.87.87,0,0,1-.84-.91h0a.87.87,0,0,1,.84-.9l48.8.06a.88.88,0,0,1,.84.91h0A.87.87,0,0,1,325.35,311.46Z" transform="translate(-53.5 -203.45)"/><path class="cls-8" d="M325.35,316.88l-48.8-.06a.88.88,0,0,1-.84-.91h0a.88.88,0,0,1,.84-.9l48.8.07a.87.87,0,0,1,.84.9h0A.87.87,0,0,1,325.35,316.88Z" transform="translate(-53.5 -203.45)"/><path class="cls-8" d="M325.34,322.3l-48.8-.06a.87.87,0,0,1-.84-.9h0a.88.88,0,0,1,.85-.91l48.79.07a.86.86,0,0,1,.84.9h0A.86.86,0,0,1,325.34,322.3Z" transform="translate(-53.5 -203.45)"/><path class="cls-8" d="M325.34,327.73l-48.8-.07a.87.87,0,0,1-.84-.9h0a.87.87,0,0,1,.84-.9l48.8.06a.88.88,0,0,1,.84.9h0A.88.88,0,0,1,325.34,327.73Z" transform="translate(-53.5 -203.45)"/><path class="cls-8" d="M325.33,333.15l-48.8-.06a.88.88,0,0,1-.84-.91h0a.87.87,0,0,1,.84-.9l48.8.06a.87.87,0,0,1,.84.91h0A.87.87,0,0,1,325.33,333.15Z" transform="translate(-53.5 -203.45)"/><path class="cls-9" d="M288.61,288.82l-124.17-.16a.62.62,0,0,1-.6-.64v-2.34a.62.62,0,0,1,.59-.64l124.17.16a.62.62,0,0,1,.6.64v2.34A.62.62,0,0,1,288.61,288.82Z" transform="translate(-53.5 -203.45)"/><text class="cls-10" transform="matrix(0.93, 0, 0, 1, 121.19, 71.79)">WORLD <tspan class="cls-11" x="86.11" y="0">N</tspan><tspan class="cls-12" x="102.51" y="0">E</tspan><tspan class="cls-13" x="115.23" y="0">WS</tspan></text><rect class="cls-9" x="313.49" y="238.15" width="4.52" height="21.87" transform="translate(12.75 361.06) rotate(-89.93)"/><path class="cls-9" d="M411.1,468.14H341.57c-5.94,0-10.75-5.17-10.75-11.56v-155c0-6.38,4.81-11.55,10.75-11.55H411.1c5.94,0,10.75,5.17,10.75,11.55v155C421.85,463,417,468.14,411.1,468.14Z" transform="translate(-53.5 -203.45)"/><path class="cls-14" d="M411.1,468.14H341.57c-5.94,0-10.75-5.17-10.75-11.56v-155c0-6.38,4.81-11.55,10.75-11.55H411.1c5.94,0,10.75,5.17,10.75,11.55v155C421.85,463,417,468.14,411.1,468.14Z" transform="translate(-53.5 -203.45)"/><path class="cls-15" d="M408.79,465.51H342.94c-5.63,0-10.19-5-10.19-11.22V303.84c0-6.2,4.56-11.22,10.19-11.22h65.85c5.63,0,10.19,5,10.19,11.22V454.29C419,460.49,414.42,465.51,408.79,465.51Z" transform="translate(-53.5 -203.45)"/><path class="cls-2" d="M409.74,464H342.93a7.55,7.55,0,0,1-7.27-7.81V302.84a7.54,7.54,0,0,1,7.27-7.8h66.81a7.55,7.55,0,0,1,7.27,7.8V456.17A7.56,7.56,0,0,1,409.74,464Z" transform="translate(-53.5 -203.45)"/><path class="cls-16" d="M416.23,300a3.22,3.22,0,0,0-1.43-2.78,7,7,0,0,0-5.06-2.21H342.93a5.15,5.15,0,0,0-6.5,5Z" transform="translate(-53.5 -203.45)"/><path class="cls-2" d="M405,298a.78.78,0,1,1-.78-.83A.81.81,0,0,1,405,298Z" transform="translate(-53.5 -203.45)"/><path class="cls-2" d="M408.12,298a.81.81,0,0,1-.78.83.83.83,0,0,1,0-1.66A.81.81,0,0,1,408.12,298Z" transform="translate(-53.5 -203.45)"/><path class="cls-2" d="M411.22,298a.81.81,0,0,1-.78.83.83.83,0,0,1,0-1.66A.81.81,0,0,1,411.22,298Z" transform="translate(-53.5 -203.45)"/><path class="cls-14" d="M361.23,295l4.67,4.25a2.46,2.46,0,0,0,1.81.81h17.76a2.77,2.77,0,0,0,2.18-1.08l3.79-4Z" transform="translate(-53.5 -203.45)"/><path class="cls-14" d="M361.23,295l4.67,4.25a2.46,2.46,0,0,0,1.81.81h17.76a2.77,2.77,0,0,0,2.18-1.08l3.79-4Z" transform="translate(-53.5 -203.45)"/><path class="cls-17" d="M378.43,392.55H345.32c-.71,0-1.29-.35-1.29-.79V356.34c0-.43.58-.79,1.29-.79h33.11c.71,0,1.29.36,1.29.79v35.42C379.72,392.2,379.14,392.55,378.43,392.55Z" transform="translate(-53.5 -203.45)"/><path class="cls-18" d="M409.07,413.49H343.6a.49.49,0,0,1-.52-.46V400.64a.49.49,0,0,1,.52-.46h65.47a.49.49,0,0,1,.52.46V413A.5.5,0,0,1,409.07,413.49Z" transform="translate(-53.5 -203.45)"/><text class="cls-19" transform="matrix(0.93, 0, 0, 1, 303.97, 118.32)">N<tspan class="cls-20" x="10.35" y="0">E</tspan><tspan x="18.38" y="0">WS </tspan><tspan class="cls-21"><tspan x="-1.3" y="17.8">T</tspan><tspan class="cls-22" x="6.27" y="17.8">O</tspan><tspan class="cls-23" x="17.08" y="17.8">D</tspan><tspan class="cls-24" x="27.34" y="17.8">A</tspan><tspan class="cls-25" x="35.84" y="17.8">Y</tspan></tspan></text><rect class="cls-16" x="288.88" y="141.53" width="67.91" height="2.11"/><rect class="cls-16" x="289.81" y="106.64" width="3.94" height="29.6"/><rect class="cls-26" x="293.75" y="106.64" width="3.94" height="29.6"/><rect class="cls-27" x="328.19" y="154.21" width="28.54" height="2.98"/><rect class="cls-27" x="328.19" y="160.17" width="28.54" height="2.98"/><rect class="cls-27" x="328.19" y="166.13" width="28.54" height="2.98"/><rect class="cls-27" x="289.81" y="216.59" width="42.32" height="2.98"/><rect class="cls-27" x="289.81" y="222.54" width="42.32" height="2.98"/><rect class="cls-27" x="289.81" y="228.5" width="42.32" height="2.98"/><rect class="cls-27" x="328.19" y="172.09" width="28.54" height="2.98"/><rect class="cls-27" x="328.19" y="178.05" width="28.54" height="2.98"/><rect class="cls-27" x="328.19" y="184.01" width="28.54" height="2.98"/><rect class="cls-28" x="347.49" y="436.9" width="12.13" height="20.64" transform="translate(-147.62 596.74) rotate(-89.93)"/><rect class="cls-18" x="370.75" y="436.93" width="12.13" height="20.64" transform="translate(-124.42 620.03) rotate(-89.93)"/><rect class="cls-29" x="393.84" y="436.96" width="12.13" height="20.64" transform="translate(-101.39 643.15) rotate(-89.93)"/><rect class="cls-17" x="334.1" y="216.59" width="21.65" height="14.8"/><path class="cls-30" d="M361.7,387c-6.81,0-12.36-6-12.36-13.28a12.94,12.94,0,0,1,.07-1.39l0-.35H360.8a1.81,1.81,0,0,0,1.77-1.82V370a1.75,1.75,0,0,0-1.72-1.68h-2.52a1.17,1.17,0,0,1-1.14-1.15,1.24,1.24,0,0,1,.31-.87,1.06,1.06,0,0,1,.79-.36h4.8L366,366a1.67,1.67,0,0,0,1.23-.56,1.9,1.9,0,0,0,.48-1.35,1.82,1.82,0,0,0-1.77-1.78H355.1l1.53-.74a11.59,11.59,0,0,1,5.07-1.17c6.82,0,12.37,6,12.37,13.29a14.92,14.92,0,0,1-.28,2.83l-.06.3H361.15a2,2,0,0,0,0,3.89h2.79l-.1.47a1.73,1.73,0,0,0,0,.45,1.88,1.88,0,0,0,1.8,1.94H370l-.85.69A11.7,11.7,0,0,1,361.7,387Zm-11.61-14.25c0,.32,0,.65,0,1,0,6.9,5.22,12.51,11.64,12.51a10.93,10.93,0,0,0,6.11-1.86h-2.22a2.62,2.62,0,0,1-2.52-2.71v-.15h-1.92a2.72,2.72,0,0,1,0-5.43h12a13.36,13.36,0,0,0,.21-2.36,12.79,12.79,0,0,0-5.07-10.32,2.63,2.63,0,0,1,.12.69,2.72,2.72,0,0,1-.68,1.91,2.34,2.34,0,0,1-1.76.8l-2.87-.05h-4.8a.36.36,0,0,0-.27.12.38.38,0,0,0-.11.3.41.41,0,0,0,.42.41h2.52a2.47,2.47,0,0,1,2.43,2.41,1.09,1.09,0,0,1,0,.18,2.56,2.56,0,0,1-2.49,2.58Zm8.81-11.18h5.59A11.14,11.14,0,0,0,358.9,361.58Z" transform="translate(-53.5 -203.45)"/><path class="cls-30" d="M369.09,384.38h-3.5a2.62,2.62,0,0,1-2.52-2.71v-.15h-1.92a2.72,2.72,0,0,1,0-5.43h12.73l-.09.47a13.4,13.4,0,0,1-4.61,7.74Zm-7.94-7.52a2,2,0,0,0,0,3.89h2.79l-.1.47a1.73,1.73,0,0,0,0,.45,1.88,1.88,0,0,0,1.8,1.94h3.25a12.61,12.61,0,0,0,4.14-6.75Z" transform="translate(-53.5 -203.45)"/><path class="cls-30" d="M360.8,372.76H349.36l.05-.42a13.3,13.3,0,0,1,7.22-10.73l.14,0h9.14a2.57,2.57,0,0,1,2.49,2.52,2.72,2.72,0,0,1-.68,1.91,2.34,2.34,0,0,1-1.76.8l-2.87-.05h-4.8a.36.36,0,0,0-.27.12.38.38,0,0,0-.11.3.41.41,0,0,0,.42.41h2.52a2.47,2.47,0,0,1,2.43,2.41,1.09,1.09,0,0,1,0,.18A2.56,2.56,0,0,1,360.8,372.76ZM350.17,372H360.8a1.81,1.81,0,0,0,1.77-1.82V370a1.75,1.75,0,0,0-1.72-1.68h-2.52a1.17,1.17,0,0,1-1.14-1.15,1.24,1.24,0,0,1,.31-.87,1.06,1.06,0,0,1,.79-.36h4.8L366,366a1.67,1.67,0,0,0,1.23-.56,1.9,1.9,0,0,0,.48-1.35,1.82,1.82,0,0,0-1.77-1.78h-9.06A12.48,12.48,0,0,0,350.17,372Z" transform="translate(-53.5 -203.45)"/><path class="cls-14" d="M254.59,338.29a11.93,11.93,0,0,0,3.06-8.05h0a11.59,11.59,0,0,0-6-10.3,35.8,35.8,0,0,0,.37-5h0c0-18-13.61-32.65-30.4-32.65h0c-16.79,0-30.4,14.62-30.4,32.65h0a35.14,35.14,0,0,0,.37,5.06,11.61,11.61,0,0,0-5.87,10.25h0a12,12,0,0,0,2.07,6.79,31.59,31.59,0,0,0-6.08,18.77h0c0,16.71,12.62,30.27,28.18,30.27h0a27.61,27.61,0,0,0,23-12.74,18.51,18.51,0,0,0,10.76,3.47h0c10.82,0,19.6-9.42,19.6-21.05h0A21.45,21.45,0,0,0,254.59,338.29Z" transform="translate(-53.5 -203.45)"/><path class="cls-15" d="M251,332a10.57,10.57,0,0,0,2.72-7.14h0a10.31,10.31,0,0,0-5.29-9.15,31,31,0,0,0,.33-4.45h0c0-16-12.09-29-27-29h0c-14.9,0-27,13-27,29h0a31.53,31.53,0,0,0,.33,4.49,10.32,10.32,0,0,0-5.21,9.11h0a10.61,10.61,0,0,0,1.84,6,28,28,0,0,0-5.4,16.67h0c0,14.84,11.2,26.87,25,26.87h0a24.5,24.5,0,0,0,20.39-11.3,16.51,16.51,0,0,0,9.56,3.08h0c9.61,0,17.4-8.37,17.4-18.7h0A19.06,19.06,0,0,0,251,332Z" transform="translate(-53.5 -203.45)"/><path class="cls-31" d="M268.19,399.46l-5.55-14.91a11.31,11.31,0,0,0-7.13-6.95l-21.79-6.87a13.7,13.7,0,0,0-4.07-.61H210.84a13.7,13.7,0,0,0-4.07.61l-21.62,6.84a11.5,11.5,0,0,0-7.22,7.06L172,400.57a.46.46,0,0,0,.09.48l2,2.23,12.8,13.91.62,3.47.15,8,1,48.76h63.09l1-46.57.19-10.19.65-3.65,12.34-13.4,1.86-2A2.08,2.08,0,0,0,268.19,399.46Z" transform="translate(-53.5 -203.45)"/><path class="cls-32" d="M263.07,395.91l-5.13-13.77a10.47,10.47,0,0,0-6.58-6.43l-20.14-6.35a13,13,0,0,0-3.76-.56H210.09a13,13,0,0,0-3.76.56l-20,6.32a10.63,10.63,0,0,0-6.67,6.52l-5.48,14.73a.44.44,0,0,0,.08.45l1.89,2.06L188,412.29l.57,3.2.14,7.39.93,45.05h58.27l.89-43,.18-9.41.6-3.37L261,399.74l1.72-1.86A2,2,0,0,0,263.07,395.91Z" transform="translate(-53.5 -203.45)"/><path class="cls-33" d="M229.78,416.9l14-43-6.38-2-10.29,31.66c-1.42,4.41-12.12,4.41-13.54,0l-10.39-31.67-6.38,2,14.11,43C212.87,423.05,227.79,423.05,229.78,416.9Z" transform="translate(-53.5 -203.45)"/><path class="cls-34" d="M233.32,370.62a2.17,2.17,0,0,1-.07.24l-7.88,24.25c-1.06,3.3-9.08,3.3-10.15,0l-7.95-24.24a2.5,2.5,0,0,1-.07-.26c-.14,0-.29.07-.43.12l-3.62,1.14,10.39,31.67c1.42,4.41,12.12,4.41,13.54,0l10.29-31.66-3.65-1.15Z" transform="translate(-53.5 -203.45)"/><path class="cls-35" d="M215.22,395.11c1.07,3.3,9.09,3.3,10.15,0l7.88-24.25a2.17,2.17,0,0,0,.07-.24,13.82,13.82,0,0,0-3.67-.5H210.84a14,14,0,0,0-3.64.49,2.5,2.5,0,0,0,.07.26Z" transform="translate(-53.5 -203.45)"/><path class="cls-14" d="M252,480.06a1.51,1.51,0,0,1-1.53,1.58s-3.88.72-20.51-.22c-22.18-1.25-41.58-2.79-41.58-2.79l0-10.4h63.61Z" transform="translate(-53.5 -203.45)"/><path class="cls-14" d="M187.61,419.05a.37.37,0,0,1-.36-.38V406.08a.36.36,0,1,1,.72,0v12.59A.37.37,0,0,1,187.61,419.05Z" transform="translate(-53.5 -203.45)"/><path class="cls-14" d="M253,419.05a.37.37,0,0,1-.36-.38V406.08a.38.38,0,0,1,.36-.39.39.39,0,0,1,.36.39v12.59A.38.38,0,0,1,253,419.05Z" transform="translate(-53.5 -203.45)"/><path class="cls-36" d="M241,323.85V317c0-.45,0-.89-.05-1.32a1.24,1.24,0,0,0-1.2-1.2h-9a1,1,0,0,1-.95-1l0-4.55a.18.18,0,0,0-.34-.1l-2.5,4.64a1.39,1.39,0,0,1-1.31,1l-5.52-.07a1,1,0,0,1-.94-1.24l1.71-10.2a.19.19,0,0,0-.35-.12c-1.34,3.12-4.57,10.74-4.57,10.74a1.39,1.39,0,0,1-1.27.89h-8.76a1.33,1.33,0,0,1-1.22-1.38s-.13-7.34-.16-7.2L203.46,313a1.61,1.61,0,0,1-1.55,1.41l-1.34,0a.55.55,0,0,0-.54.56c-.07,2.13-.05,8.81-.05,8.81h-.11a6.67,6.67,0,0,0-6.44,5.36c-1,4.6,2.24,8.68,6.36,8.68H200v1.77A21.25,21.25,0,0,0,211,358.59v10.75a4.82,4.82,0,0,0,.24,1.51l5.5,16.78c.74,2.29,6.29,2.29,7,0l5.45-16.78a4.87,4.87,0,0,0,.24-1.51v-9.6a4.41,4.41,0,0,0-.09-.89A21.19,21.19,0,0,0,241,339.65v-1.78a7,7,0,0,0,0-14Z" transform="translate(-53.5 -203.45)"/><g class="cls-37"><path class="cls-38" d="M240.7,324.39v-6.56c0-.42,0-.84,0-1.25,0-.64-1.31-.45-1.31-.45,4.32,18.94-5.74,57.53-35.92,32.06,0,0-.72,4.63,8.05,10.07v9.46a4.49,4.49,0,0,0,.23,1.45l5.24,16c.7,2.18,6,2.18,6.69,0l5.19-16a4.6,4.6,0,0,0,.23-1.43v-9.14c0-.3,0,.19-.08-.08a22,22,0,0,0,11.73-19.07v-1.69c3.36-.1,5.34-3.05,5.34-6.68S244.06,324.49,240.7,324.39Z" transform="translate(-53.5 -203.45)"/></g><path class="cls-38" d="M199.58,336.65a2.31,2.31,0,1,1-2.3-2.47A2.39,2.39,0,0,1,199.58,336.65Z" transform="translate(-53.5 -203.45)"/><path class="cls-38" d="M246.17,336.65a2.31,2.31,0,1,1-2.3-2.47A2.39,2.39,0,0,1,246.17,336.65Z" transform="translate(-53.5 -203.45)"/><path class="cls-38" d="M194.75,330.79a.31.31,0,0,1-.3-.32c0-4.59,3.94-4.65,4-4.65a.31.31,0,0,1,.3.32.31.31,0,0,1-.3.32c-.14,0-3.38.07-3.38,4A.31.31,0,0,1,194.75,330.79Z" transform="translate(-53.5 -203.45)"/><path class="cls-38" d="M245.59,330.79a.31.31,0,0,1-.3-.32c0-4-3.24-4-3.38-4a.31.31,0,0,1-.3-.32.31.31,0,0,1,.3-.32s4,.06,4,4.65A.31.31,0,0,1,245.59,330.79Z" transform="translate(-53.5 -203.45)"/><path class="cls-39" d="M219.62,360.74a18.49,18.49,0,0,1-8.54-2.12v7.06l18.41-6.58-.27-.15a18.48,18.48,0,0,1-7.9,1.79Z" transform="translate(-53.5 -203.45)"/><path class="cls-40" d="M209.93,339.74h-4a2.4,2.4,0,0,1-2.3-2.48h0a2.39,2.39,0,0,1,2.3-2.47h4a2.39,2.39,0,0,1,2.3,2.47h0A2.4,2.4,0,0,1,209.93,339.74Z" transform="translate(-53.5 -203.45)"/><path class="cls-40" d="M234.09,339.74h-4a2.4,2.4,0,0,1-2.3-2.48h0a2.39,2.39,0,0,1,2.3-2.47h4a2.39,2.39,0,0,1,2.3,2.47h0A2.4,2.4,0,0,1,234.09,339.74Z" transform="translate(-53.5 -203.45)"/><path class="cls-38" d="M217.26,354.11a.28.28,0,0,1-.15,0,.34.34,0,0,1-.11-.44,3.35,3.35,0,0,1,6,0,.34.34,0,0,1-.11.44.3.3,0,0,1-.41-.12,2.77,2.77,0,0,0-5,0A.31.31,0,0,1,217.26,354.11Z" transform="translate(-53.5 -203.45)"/><path class="cls-14" d="M210.86,330.91h0a1.24,1.24,0,0,1-1.2-1.29v-2.57a1.24,1.24,0,0,1,1.2-1.29h0a1.24,1.24,0,0,1,1.2,1.29v2.57A1.24,1.24,0,0,1,210.86,330.91Z" transform="translate(-53.5 -203.45)"/><path class="cls-14" d="M229.26,330.91h0a1.24,1.24,0,0,1-1.2-1.29v-2.57a1.24,1.24,0,0,1,1.2-1.29h0a1.24,1.24,0,0,1,1.2,1.29v2.57A1.24,1.24,0,0,1,229.26,330.91Z" transform="translate(-53.5 -203.45)"/><path class="cls-38" d="M223,338.2h-4.3a1.06,1.06,0,0,1-1-.65,1.22,1.22,0,0,1,.14-1.22,8.25,8.25,0,0,0,1.63-4.94V327a.3.3,0,1,1,.59,0v4.4a8.86,8.86,0,0,1-1.76,5.34.53.53,0,0,0-.06.54.46.46,0,0,0,.43.29H223a.32.32,0,0,1,0,.64Z" transform="translate(-53.5 -203.45)"/><path class="cls-14" d="M226.49,348.4H224a3.83,3.83,0,0,1-3.67-3.95v-1.32a2,2,0,0,1,2-2.11h6a2,2,0,0,1,1.89,2v1.4A3.83,3.83,0,0,1,226.49,348.4Z" transform="translate(-53.5 -203.45)"/><path class="cls-41" d="M226.86,347.86h-3.29a1.4,1.4,0,0,1-1.34-1.45h0a1.4,1.4,0,0,1,1.34-1.44h3.29a1.4,1.4,0,0,1,1.35,1.44h0A1.41,1.41,0,0,1,226.86,347.86Z" transform="translate(-53.5 -203.45)"/><path class="cls-14" d="M229.12,320.86a4.2,4.2,0,0,0,1.73.63c.64.13,1.28.28,1.83.44s1.18.35,1.8.56a4,4,0,0,0,1.79.35c.53-.08.87-.64.49-1.56a5.09,5.09,0,0,0-3.36-2.57,4.59,4.59,0,0,0-4.05.52C228.63,319.84,228.69,320.51,229.12,320.86Z" transform="translate(-53.5 -203.45)"/><path class="cls-14" d="M206.05,323a4.18,4.18,0,0,0,1.78-.43c.61-.25,1.23-.47,1.77-.65s1.18-.36,1.81-.53a4.2,4.2,0,0,0,1.71-.7c.4-.37.42-1-.35-1.61a4.74,4.74,0,0,0-4.11-.31,5,5,0,0,0-3.2,2.71C205.14,322.39,205.52,322.93,206.05,323Z" transform="translate(-53.5 -203.45)"/><path class="cls-14" d="M240.55,324.14a1.56,1.56,0,0,0-1.17-.52H225.43a1.63,1.63,0,0,0-1.53,1.17,7.8,7.8,0,0,0-7.19,0,2.12,2.12,0,0,0-.33-.56,1.58,1.58,0,0,0-1.17-.53l-14-.05a1.47,1.47,0,0,0-1.15.51,1.8,1.8,0,0,0-.48,1.24v4.87c0,4.64,3.19,8.41,7.1,8.41h3c3.91,0,7.1-3.77,7.1-8.41v-4.1a6.81,6.81,0,0,1,7,0v4.07c0,4.64,3.19,8.41,7.1,8.41h3c3.91,0,7.1-3.77,7.1-8.41V325.4A1.8,1.8,0,0,0,240.55,324.14Zm-24.92,6.1c0,3.93-2.65,7.13-5.9,7.13h-3c-3.26,0-5.91-3.2-5.91-7.13v-4.87a.49.49,0,0,1,.13-.33.41.41,0,0,1,.31-.14h0l13.95.05a.41.41,0,0,1,.31.14.42.42,0,0,1,.12.34Zm24.19,0c0,3.93-2.66,7.13-5.91,7.13h-3c-3.25,0-5.91-3.2-5.91-7.13v-4.88a.45.45,0,0,1,.44-.46h13.95a.41.41,0,0,1,.31.14.46.46,0,0,1,.13.33Z" transform="translate(-53.5 -203.45)"/><path class="cls-36" d="M186.93,417.19l-12.8-13.91-7.88,37.93c-1,4.67,1.77,9.3,6.11,10.34l2.21.53a8.08,8.08,0,0,0,9.63-6.56l3.5-16.86-.15-8Z" transform="translate(-53.5 -203.45)"/><path class="cls-42" d="M186.93,417.19l-12.8-13.91-7.88,37.93c-1,4.67,1.77,9.3,6.11,10.34l2.21.53a8.08,8.08,0,0,0,9.63-6.56l3.5-16.86-.15-8Z" transform="translate(-53.5 -203.45)"/><polygon class="cls-39" points="124.42 203.95 134 226.48 134 213.5 124.42 203.95"/><path class="cls-36" d="M212.6,402.24l1.65-6.5a8.89,8.89,0,0,1,3.31-5l1.51-1.1a1.67,1.67,0,0,1,2.6,1.57l-.06,1.33a10,10,0,0,1-8.05,9.52Z" transform="translate(-53.5 -203.45)"/><path class="cls-43" d="M212.6,402.24l1.65-6.5a8.89,8.89,0,0,1,3.31-5l1.51-1.1a1.67,1.67,0,0,1,2.6,1.57l-.06,1.33a10,10,0,0,1-8.05,9.52Z" transform="translate(-53.5 -203.45)"/><ellipse class="cls-14" cx="169.43" cy="165.68" rx="5.99" ry="6.43"/><path class="cls-14" d="M224.55,400.76h-3.24a1.14,1.14,0,0,1-1.09-1.18V378.63a1.14,1.14,0,0,1,1.09-1.18h3.25a1.14,1.14,0,0,1,1.09,1.18v20.95A1.14,1.14,0,0,1,224.55,400.76Z" transform="translate(-53.5 -203.45)"/><path class="cls-44" d="M222,400.76h0a1.58,1.58,0,0,1-1.52-1.63V379.08a1.58,1.58,0,0,1,1.52-1.63h0a1.57,1.57,0,0,1,1.51,1.63v20A1.58,1.58,0,0,1,222,400.76Z" transform="translate(-53.5 -203.45)"/><path class="cls-26" d="M227.85,385.21H218a1.11,1.11,0,0,1-1.08-1.15v-8.42a1.12,1.12,0,0,1,1.08-1.15h9.83a1.12,1.12,0,0,1,1.07,1.15v8.42A1.11,1.11,0,0,1,227.85,385.21Z" transform="translate(-53.5 -203.45)"/><path class="cls-45" d="M223,385.21h-4.78a1.11,1.11,0,0,1-1.08-1.15v-8.42a1.12,1.12,0,0,1,1.08-1.15H223Z" transform="translate(-53.5 -203.45)"/><path class="cls-9" d="M223.05,381.07a.35.35,0,0,1-.36.31h-.91a.37.37,0,0,1-.37-.31l-.23-2c0-.17,0-.36,0-.53h-.08c0,.18,0,.36,0,.54l-.23,2a.36.36,0,0,1-.37.31h-.91a.37.37,0,0,1-.37-.3l-.42-3.36h1.06L220,380c0,.18,0,.37,0,.61h.08c0-.19.06-.43.08-.62l.23-1.9a.36.36,0,0,1,.36-.34h.77a.37.37,0,0,1,.36.34l.23,1.91c0,.2,0,.42.07.61h.08c0-.2,0-.42,0-.6l.18-2.26h1Z" transform="translate(-53.5 -203.45)"/><path class="cls-16" d="M227,381.09c0,.19-.09.29-.27.29h-.47c-.15,0-.22-.08-.3-.24l-.89-1.95a3.51,3.51,0,0,1-.21-.57h-.05a5.63,5.63,0,0,1,0,.58v2.18h-.72V378c0-.19.09-.29.27-.29h.46c.16,0,.23.08.3.24l.86,1.89c.08.16.17.39.25.59h0c0-.2,0-.41,0-.61v-2.11H227Z" transform="translate(-53.5 -203.45)"/><path class="cls-46" d="M229.5,370.2h-13a.51.51,0,0,1-.49-.53h0a.52.52,0,0,1,.49-.54h13a.52.52,0,0,1,.5.54h0A.51.51,0,0,1,229.5,370.2Z" transform="translate(-53.5 -203.45)"/><path class="cls-36" d="M229.5,389.56a.85.85,0,0,0-1.33-.23l-6.33,3.4a19.82,19.82,0,0,0-6.53,5.68A19.26,19.26,0,0,1,213,401.3l-43.34,36.6a8.93,8.93,0,0,0-.49,12.3,9.84,9.84,0,0,0,14.84,0l35.21-40.53a22.46,22.46,0,0,0,8.65-5.28C233.33,399.47,230.7,392.18,229.5,389.56Z" transform="translate(-53.5 -203.45)"/><path class="cls-36" d="M274.81,446.33l-8.88-42.72L253.59,417l-.65,3.65-.19,10.19,4.11,19.79a8.08,8.08,0,0,0,9.63,6.56l2.21-.53C273,455.63,275.78,451,274.81,446.33Z" transform="translate(-53.5 -203.45)"/><path class="cls-42" d="M274.81,446.33l-8.88-42.72L253.59,417l-.65,3.65-.19,10.19,4.11,19.79a8.08,8.08,0,0,0,9.63,6.56l2.21-.53C273,455.63,275.78,451,274.81,446.33Z" transform="translate(-53.5 -203.45)"/><polygon class="cls-39" points="208.84 203.95 199.26 226.48 199.5 214.2 208.84 203.95"/><path class="cls-36" d="M299,408.2a5.89,5.89,0,0,0,10,.9l3.24-4.28a2.46,2.46,0,0,0,.17-2.93h0a2.07,2.07,0,0,0-2.93-.64l-4.87,3.24L299,408.2Z" transform="translate(-53.5 -203.45)"/><g class="cls-47"><path class="cls-38" d="M299,408.2a5.89,5.89,0,0,0,10,.9l3.24-4.28a2.46,2.46,0,0,0,.17-2.93h0a2.07,2.07,0,0,0-2.93-.64l-4.87,3.24L299,408.2Z" transform="translate(-53.5 -203.45)"/></g><path class="cls-36" d="M322.4,401.28a3.65,3.65,0,0,0-3.49,2,6.79,6.79,0,0,1-6.73,3.66c-4.43-.54-11.05-.81-14.12,1.65l0,.09-.22.17L260.3,443.25a8.38,8.38,0,0,0-.51,11.55,9.23,9.23,0,0,0,13.92.09l31.54-34.57L316.64,418a4,4,0,0,0,3.52-2l5.07-8.6C326.71,404.83,325.17,401.51,322.4,401.28Z" transform="translate(-53.5 -203.45)"/><path class="cls-48" d="M359.69,206.18h45.2a5.73,5.73,0,0,1,5.52,5.92v48.55a5.73,5.73,0,0,1-5.52,5.93H368.55a2.94,2.94,0,0,0-2,.84l-7.27,7.11a3,3,0,0,1-5.07-2.4v-60A5.73,5.73,0,0,1,359.69,206.18Z" transform="translate(-53.5 -203.45)"/><path class="cls-49" d="M359.69,206.18h45.2a5.73,5.73,0,0,1,5.52,5.92v48.55a5.73,5.73,0,0,1-5.52,5.93H368.55a2.94,2.94,0,0,0-2,.84l-7.27,7.11a3,3,0,0,1-5.07-2.4v-60A5.73,5.73,0,0,1,359.69,206.18Z" transform="translate(-53.5 -203.45)"/><path class="cls-50" d="M361.87,208.49H402.7a5.18,5.18,0,0,1,5,5.36v43.86a5.18,5.18,0,0,1-5,5.35H369.88a2.63,2.63,0,0,0-1.84.76l-6.58,6.42a2.71,2.71,0,0,1-4.57-2.17V213.85A5.18,5.18,0,0,1,361.87,208.49Z" transform="translate(-53.5 -203.45)"/><path class="cls-51" d="M373.49,242.68l0,0,0,0Z" transform="translate(-53.5 -203.45)"/><polygon class="cls-2" points="315.35 36.11 316.87 44.24 319.97 39.21 315.35 36.11"/><path class="cls-2" d="M401.14,221.83l-31.62,17.76a.58.58,0,0,1-.64,0l0,0,4.62,3.09h0l0,0a.68.68,0,0,1,.26-.65l27.62-20.33-.18.09Z" transform="translate(-53.5 -203.45)"/><path class="cls-5" d="M401.19,221.79l-.05,0-31.62,17.76a.58.58,0,0,1-.64,0l0,0,1.52,8.12,3.1-5h0l0,0a.68.68,0,0,1,.26-.65l27.62-20.33Z" transform="translate(-53.5 -203.45)"/><path class="cls-52" d="M401.41,221.65l0,0" transform="translate(-53.5 -203.45)"/><path class="cls-2" d="M373.49,242.68h0l2.07,2.53,4.95,5.6a4.34,4.34,0,0,0,7.18-.95l13.68-28.17L373.75,242A.68.68,0,0,0,373.49,242.68Z" transform="translate(-53.5 -203.45)"/><path class="cls-2" d="M369.52,239.59l31.62-17.76.05,0c.06,0,.11-.08-.08,0L363.19,230a2.38,2.38,0,0,0-.86,4.09l6.5,5.46.05,0A.58.58,0,0,0,369.52,239.59Z" transform="translate(-53.5 -203.45)"/><polygon class="cls-2" points="319.99 39.24 319.97 39.21 319.97 39.21 319.97 39.21 316.87 44.24 322.06 41.77 322.06 41.77 319.99 39.24"/><polygon class="cls-4" points="319.99 39.24 319.97 39.21 319.97 39.21 319.97 39.21 316.87 44.24 322.06 41.77 322.06 41.77 319.99 39.24"/><path class="cls-38" d="M208.13,223.48H160.07a1,1,0,0,1-1-1v-17a1,1,0,0,1,1-1.05h48.06a1,1,0,0,1,1,1.05v17A1,1,0,0,1,208.13,223.48Z" transform="translate(-53.5 -203.45)"/><text class="cls-53" transform="translate(112.81 17.76) scale(0.93 1)">LIVE</text><path class="cls-54" d="M118.68,354.53v-40.3a4.76,4.76,0,0,1,4.58-4.92h37.52a4.76,4.76,0,0,1,4.58,4.92v32.4a2.81,2.81,0,0,0,.65,1.82l5.49,6.49a2.72,2.72,0,0,1-1.85,4.51H123.26A4.76,4.76,0,0,1,118.68,354.53Z" transform="translate(-53.5 -203.45)"/><path class="cls-49" d="M118,354.53v-40.3a4.76,4.76,0,0,1,4.58-4.92h37.52a4.76,4.76,0,0,1,4.58,4.92v32.4a2.81,2.81,0,0,0,.65,1.82l5.5,6.49a2.72,2.72,0,0,1-1.86,4.51H122.54A4.76,4.76,0,0,1,118,354.53Z" transform="translate(-53.5 -203.45)"/><path class="cls-55" d="M118.68,353.81V317.59a4.37,4.37,0,0,1,4.3-4.42h35.25a4.37,4.37,0,0,1,4.31,4.42v29.12a2.44,2.44,0,0,0,.61,1.63l5.16,5.83a2.44,2.44,0,0,1-1.75,4.06H123A4.37,4.37,0,0,1,118.68,353.81Z" transform="translate(-53.5 -203.45)"/><path class="cls-2" d="M137.18,345.41a4.21,4.21,0,0,1,1-2.93,4.11,4.11,0,0,1,5.68,0,4.67,4.67,0,0,1,0,5.85,4.08,4.08,0,0,1-5.68,0A4.19,4.19,0,0,1,137.18,345.41Zm7.42-21.84c0,.67,0,1.63,0,2.89s-.08,2.61-.16,4.07-.19,2.91-.33,4.37-.29,2.72-.48,3.79a1.75,1.75,0,0,1-.48.26,5.05,5.05,0,0,1-.69.22,6,6,0,0,1-.72.13,5.36,5.36,0,0,1-.65,0,4.42,4.42,0,0,1-2-.39,2,2,0,0,1-1-1.51,28.49,28.49,0,0,1-.34-3c-.09-1.35-.18-2.83-.26-4.42s-.14-3.16-.18-4.72c0-.75,0-1.45,0-2.1a2.67,2.67,0,0,1,1.8-2.64h0a7.65,7.65,0,0,1,2-.28,3.66,3.66,0,0,1,2.56.82A3.21,3.21,0,0,1,144.6,323.57Z" transform="translate(-53.5 -203.45)"/><g class="cls-56"><path class="cls-26" d="M141,341.34a3.62,3.62,0,0,1,2.84,1.14,4.67,4.67,0,0,1,0,5.85,3.59,3.59,0,0,1-2.84,1.15c-.61,0,1.38-.52,1.38-4.37S140.35,341.34,141,341.34Zm3.55-17.77c0,.67,0,1.63,0,2.89s-.08,2.61-.16,4.07-.19,2.91-.33,4.37-.29,2.72-.48,3.79a1.75,1.75,0,0,1-.48.26,5.05,5.05,0,0,1-.69.22,6,6,0,0,1-.72.13,5.36,5.36,0,0,1-.65,0c-.18,0,1.19-4.38,1.2-8.94,0-5-1.3-10.16-1.12-10.16a3.66,3.66,0,0,1,2.56.82A3.21,3.21,0,0,1,144.51,323.57Z" transform="translate(-53.5 -203.45)"/></g></svg>