<svg id="Layer_1" data-name="Layer 1" xmlns="http://www.w3.org/2000/svg" viewBox="0 0 654.86 372.24"><defs><style>.cls-1{opacity:0.35;}.cls-2,.cls-28,.cls-51{fill:#fff;}.cls-17,.cls-24,.cls-25,.cls-3,.cls-4,.cls-5,.cls-7{fill:#4f66af;}.cls-3{opacity:0.44;}.cls-4{opacity:0.29;}.cls-31,.cls-5{opacity:0.18;}.cls-11,.cls-12,.cls-15,.cls-16,.cls-20,.cls-27,.cls-42,.cls-43,.cls-6{fill:#6895ce;}.cls-6,.cls-7,.cls-8{opacity:0.6;}.cls-10,.cls-18,.cls-26,.cls-8,.cls-9{fill:#3f499c;}.cls-10{font-size:30.46px;letter-spacing:0.04em;}.cls-10,.cls-18,.cls-51{font-family:Exo2-Black, Exo2 Black;font-weight:800;}.cls-11,.cls-12,.cls-20{font-family:Exo2-Bold, Exo2 Bold;font-weight:700;}.cls-12{letter-spacing:0.05em;}.cls-13,.cls-31,.cls-32,.cls-33,.cls-47{fill:#383449;}.cls-14,.cls-30{fill:#edf1f7;}.cls-14{opacity:0.03;}.cls-16,.cls-25{opacity:0.36;}.cls-17,.cls-26,.cls-27,.cls-28{opacity:0.89;}.cls-18{font-size:19.22px;}.cls-18,.cls-21{letter-spacing:0.04em;}.cls-19{letter-spacing:0.05em;}.cls-20{letter-spacing:0.01em;}.cls-22{letter-spacing:0.03em;}.cls-23{letter-spacing:-0.04em;}.cls-29{fill:#ca2128;}.cls-30{opacity:0.06;}.cls-32{opacity:0.32;}.cls-33{opacity:0.42;}.cls-34{fill:#f8dcd2;}.cls-35{opacity:0.13;}.cls-36,.cls-37,.cls-40,.cls-41{fill:#f0929d;}.cls-37,.cls-45{opacity:0.37;}.cls-38{fill:#f7a9aa;opacity:0.68;}.cls-39{fill:#f69da5;}.cls-40,.cls-43{opacity:0.12;}.cls-41{opacity:0.27;}.cls-42{opacity:0.17;}.cls-44{fill:#dcdbdb;}.cls-46{fill:#465fab;}.cls-47{opacity:0.11;}.cls-48{fill:#3d60ac;}.cls-49{fill:#accded;}.cls-50{fill:none;stroke:#c0def4;stroke-linecap:round;stroke-linejoin:round;stroke-width:0;}.cls-51{font-size:26.61px;letter-spacing:0.04em;}.cls-52{fill:#b33b26;}.cls-53{fill:#ef3f24;}.cls-54{opacity:0.1;}</style></defs><g class="cls-1"><path class="cls-2" d="M527.83,357.54a60,60,0,1,1,60-60A60.07,60.07,0,0,1,527.83,357.54Zm0-119a59,59,0,1,0,59,59A59.06,59.06,0,0,0,527.83,238.54Z" transform="translate(-31.16 -188.54)"/><path class="cls-2" d="M527.83,343.54c-33.09,0-60-20.64-60-46s26.91-46,60-46,60,20.63,60,46S560.91,343.54,527.83,343.54Zm0-91c-32.53,0-59,20.18-59,45s26.47,45,59,45,59-20.19,59-45S560.36,252.54,527.83,252.54Z" transform="translate(-31.16 -188.54)"/><path class="cls-2" d="M527.83,332c-33.09,0-60-15.48-60-34.5s26.91-34.5,60-34.5,60,15.47,60,34.5S560.91,332,527.83,332Zm0-68c-32.53,0-59,15-59,33.5s26.47,33.5,59,33.5,59-15,59-33.5S560.36,264,527.83,264Z" transform="translate(-31.16 -188.54)"/><path class="cls-2" d="M527.83,323.54c-33.09,0-60-11.67-60-26s26.91-26,60-26,60,11.66,60,26S560.91,323.54,527.83,323.54Zm0-51c-32.53,0-59,11.21-59,25s26.47,25,59,25,59-11.22,59-25S560.36,272.54,527.83,272.54Z" transform="translate(-31.16 -188.54)"/><path class="cls-2" d="M527.83,307.54c-29.49,0-60-3.74-60-10s30.51-10,60-10,60,3.74,60,10S557.32,307.54,527.83,307.54Zm0-19c-35.29,0-59,4.65-59,9s23.71,9,59,9,59-4.66,59-9S563.12,288.54,527.83,288.54Z" transform="translate(-31.16 -188.54)"/><path class="cls-2" d="M527.83,357.54c-25.37,0-46-26.92-46-60s20.63-60,46-60,46,26.91,46,60S553.19,357.54,527.83,357.54Zm0-119c-24.81,0-45,26.46-45,59s20.19,59,45,59,45-26.47,45-59S552.64,238.54,527.83,238.54Z" transform="translate(-31.16 -188.54)"/><path class="cls-2" d="M527.83,357.54c-19,0-34.5-26.92-34.5-60s15.48-60,34.5-60,34.5,26.91,34.5,60S546.85,357.54,527.83,357.54Zm0-119c-18.47,0-33.5,26.46-33.5,59s15,59,33.5,59,33.5-26.47,33.5-59S546.3,238.54,527.83,238.54Z" transform="translate(-31.16 -188.54)"/><path class="cls-2" d="M527.83,357.54c-14.34,0-26-26.92-26-60s11.66-60,26-60,26,26.91,26,60S542.17,357.54,527.83,357.54Zm0-119c-13.79,0-25,26.46-25,59s11.21,59,25,59,25-26.47,25-59S541.61,238.54,527.83,238.54Z" transform="translate(-31.16 -188.54)"/><path class="cls-2" d="M527.83,357.54c-6.26,0-10-30.51-10-60s3.74-60,10-60,10,30.5,10,60S534.09,357.54,527.83,357.54Zm0-119c-4.35,0-9,23.7-9,59s4.65,59,9,59,9-23.71,9-59S532.18,238.54,527.83,238.54Z" transform="translate(-31.16 -188.54)"/></g><g class="cls-1"><path class="cls-2" d="M188.83,504.54a60,60,0,1,1,60-60A60.07,60.07,0,0,1,188.83,504.54Zm0-119a59,59,0,1,0,59,59A59.06,59.06,0,0,0,188.83,385.54Z" transform="translate(-31.16 -188.54)"/><path class="cls-2" d="M188.83,490.54c-33.09,0-60-20.64-60-46s26.91-46,60-46,60,20.63,60,46S221.91,490.54,188.83,490.54Zm0-91c-32.53,0-59,20.18-59,45s26.47,45,59,45,59-20.19,59-45S221.36,399.54,188.83,399.54Z" transform="translate(-31.16 -188.54)"/><path class="cls-2" d="M188.83,479c-33.09,0-60-15.48-60-34.5s26.91-34.5,60-34.5,60,15.47,60,34.5S221.91,479,188.83,479Zm0-68c-32.53,0-59,15-59,33.5s26.47,33.5,59,33.5,59-15,59-33.5S221.36,411,188.83,411Z" transform="translate(-31.16 -188.54)"/><path class="cls-2" d="M188.83,470.54c-33.09,0-60-11.67-60-26s26.91-26,60-26,60,11.66,60,26S221.91,470.54,188.83,470.54Zm0-51c-32.53,0-59,11.21-59,25s26.47,25,59,25,59-11.22,59-25S221.36,419.54,188.83,419.54Z" transform="translate(-31.16 -188.54)"/><path class="cls-2" d="M188.83,454.54c-29.49,0-60-3.74-60-10s30.51-10,60-10,60,3.74,60,10S218.32,454.54,188.83,454.54Zm0-19c-35.29,0-59,4.65-59,9s23.71,9,59,9,59-4.66,59-9S224.12,435.54,188.83,435.54Z" transform="translate(-31.16 -188.54)"/><path class="cls-2" d="M188.83,504.54c-25.37,0-46-26.92-46-60s20.63-60,46-60,46,26.91,46,60S214.19,504.54,188.83,504.54Zm0-119c-24.81,0-45,26.46-45,59s20.19,59,45,59,45-26.47,45-59S213.64,385.54,188.83,385.54Z" transform="translate(-31.16 -188.54)"/><path class="cls-2" d="M188.83,504.54c-19,0-34.5-26.92-34.5-60s15.48-60,34.5-60,34.5,26.91,34.5,60S207.85,504.54,188.83,504.54Zm0-119c-18.47,0-33.5,26.46-33.5,59s15,59,33.5,59,33.5-26.47,33.5-59S207.3,385.54,188.83,385.54Z" transform="translate(-31.16 -188.54)"/><path class="cls-2" d="M188.83,504.54c-14.34,0-26-26.92-26-60s11.66-60,26-60,26,26.91,26,60S203.17,504.54,188.83,504.54Zm0-119c-13.79,0-25,26.46-25,59s11.21,59,25,59,25-26.47,25-59S202.61,385.54,188.83,385.54Z" transform="translate(-31.16 -188.54)"/><path class="cls-2" d="M188.83,504.54c-6.26,0-10-30.51-10-60s3.74-60,10-60,10,30.5,10,60S195.09,504.54,188.83,504.54Zm0-119c-4.35,0-9,23.71-9,59s4.65,59,9,59,9-23.71,9-59S193.18,385.54,188.83,385.54Z" transform="translate(-31.16 -188.54)"/></g><path class="cls-2" d="M73.6,334.86a3.56,3.56,0,0,1-2.53-1.07L63,325.67a1.63,1.63,0,0,0-1.14-.47h-10a5,5,0,0,1-5-5V301.54a5,5,0,0,1,5-5h32a5,5,0,0,1,5,5V320.2a5,5,0,0,1-5,5h-5a1.62,1.62,0,0,0-1.61,1.61v4.43A3.54,3.54,0,0,1,75,334.57,3.71,3.71,0,0,1,73.6,334.86ZM51.84,298.54a3,3,0,0,0-3,3V320.2a3,3,0,0,0,3,3h10a3.59,3.59,0,0,1,2.55,1.06l8.12,8.12a1.61,1.61,0,0,0,2.74-1.14v-4.43a3.61,3.61,0,0,1,3.61-3.61h5a3,3,0,0,0,3-3V301.54a3,3,0,0,0-3-3Z" transform="translate(-31.16 -188.54)"/><path class="cls-2" d="M58.33,314a3,3,0,1,1,3-3A3,3,0,0,1,58.33,314Zm0-5a2,2,0,1,0,2,2A2,2,0,0,0,58.33,309Z" transform="translate(-31.16 -188.54)"/><path class="cls-2" d="M67.83,314.54a3,3,0,1,1,3-3A3,3,0,0,1,67.83,314.54Zm0-5a2,2,0,1,0,2,2A2,2,0,0,0,67.83,309.54Z" transform="translate(-31.16 -188.54)"/><path class="cls-2" d="M76.83,314.54a3,3,0,1,1,3-3A3,3,0,0,1,76.83,314.54Zm0-5a2,2,0,1,0,2,2A2,2,0,0,0,76.83,309.54Z" transform="translate(-31.16 -188.54)"/><path class="cls-2" d="M664.92,465.86a3.11,3.11,0,0,1-1.18-.24,3,3,0,0,1-1.87-2.81v-3.45a1,1,0,0,0-1-1H657a4.13,4.13,0,0,1-4.12-4.12V439.66a4.13,4.13,0,0,1,4.12-4.12h24.94a4.13,4.13,0,0,1,4.13,4.12v14.55a4.13,4.13,0,0,1-4.13,4.12h-7.78a1,1,0,0,0-.73.3L667.05,465A3,3,0,0,1,664.92,465.86Zm-8-28.32a2.12,2.12,0,0,0-2.12,2.12v14.55a2.12,2.12,0,0,0,2.12,2.12h3.88a3,3,0,0,1,3,3v3.45a1,1,0,0,0,1.76.74l6.33-6.33a3.05,3.05,0,0,1,2.15-.89h7.78a2.13,2.13,0,0,0,2.13-2.12V439.66a2.13,2.13,0,0,0-2.13-2.12Z" transform="translate(-31.16 -188.54)"/><path class="cls-2" d="M676.83,449.51a2.45,2.45,0,1,1,2.45-2.45A2.45,2.45,0,0,1,676.83,449.51Zm0-3.9a1.45,1.45,0,1,0,1.45,1.45A1.45,1.45,0,0,0,676.83,445.61Z" transform="translate(-31.16 -188.54)"/><path class="cls-2" d="M669.42,449.9a2.45,2.45,0,1,1,2.45-2.45A2.45,2.45,0,0,1,669.42,449.9Zm0-3.9a1.45,1.45,0,1,0,1.45,1.45A1.45,1.45,0,0,0,669.42,446Z" transform="translate(-31.16 -188.54)"/><path class="cls-2" d="M662.41,449.9a2.45,2.45,0,1,1,2.45-2.45A2.45,2.45,0,0,1,662.41,449.9Zm0-3.9a1.45,1.45,0,1,0,1.45,1.45A1.45,1.45,0,0,0,662.41,446Z" transform="translate(-31.16 -188.54)"/><path class="cls-2" d="M622.68,212.85a2.59,2.59,0,0,1-1.84-.76l-5-5a.6.6,0,0,0-.42-.18h-6.14a3.46,3.46,0,0,1-3.46-3.46V192a3.46,3.46,0,0,1,3.46-3.46H629a3.46,3.46,0,0,1,3.46,3.46v11.46a3.46,3.46,0,0,1-3.46,3.46h-3.06a.61.61,0,0,0-.61.61v2.72a2.59,2.59,0,0,1-1.6,2.4A2.55,2.55,0,0,1,622.68,212.85Zm-13.39-22.31a1.46,1.46,0,0,0-1.46,1.46v11.46a1.46,1.46,0,0,0,1.46,1.46h6.14a2.56,2.56,0,0,1,1.84.77l5,5a.58.58,0,0,0,.66.13.57.57,0,0,0,.37-.55v-2.72a2.61,2.61,0,0,1,2.61-2.61H629a1.46,1.46,0,0,0,1.46-1.46V192a1.46,1.46,0,0,0-1.46-1.46Z" transform="translate(-31.16 -188.54)"/><path class="cls-2" d="M613.28,199.87a2,2,0,1,1,2-2A2,2,0,0,1,613.28,199.87Zm0-3.07a1,1,0,1,0,1,1A1,1,0,0,0,613.28,196.8Z" transform="translate(-31.16 -188.54)"/><path class="cls-2" d="M619.12,200.18a2,2,0,1,1,2-2A2,2,0,0,1,619.12,200.18Zm0-3.08a1,1,0,1,0,1,1A1,1,0,0,0,619.12,197.1Z" transform="translate(-31.16 -188.54)"/><path class="cls-2" d="M624.65,200.18a2,2,0,1,1,2-2A2,2,0,0,1,624.65,200.18Zm0-3.08a1,1,0,1,0,1,1A1,1,0,0,0,624.65,197.1Z" transform="translate(-31.16 -188.54)"/><path class="cls-2" d="M443.58,533.29,194.41,533a1.59,1.59,0,0,1-1.59-1.59l.35-295.26a1.6,1.6,0,0,1,1.6-1.59l249.17.3a1.59,1.59,0,0,1,1.59,1.59l-.36,295.27A1.6,1.6,0,0,1,443.58,533.29Z" transform="translate(-31.16 -188.54)"/><path class="cls-3" d="M443.58,533.29,194.41,533a1.59,1.59,0,0,1-1.59-1.59l.35-295.26a1.6,1.6,0,0,1,1.6-1.59l249.17.3a1.59,1.59,0,0,1,1.59,1.59l-.36,295.27A1.6,1.6,0,0,1,443.58,533.29Z" transform="translate(-31.16 -188.54)"/><path class="cls-2" d="M439.58,537.29,190.41,537a1.59,1.59,0,0,1-1.59-1.59l.35-295.26a1.6,1.6,0,0,1,1.6-1.59l249.17.3a1.59,1.59,0,0,1,1.59,1.59l-.36,295.27A1.6,1.6,0,0,1,439.58,537.29Z" transform="translate(-31.16 -188.54)"/><path class="cls-4" d="M439.58,537.29,190.41,537a1.59,1.59,0,0,1-1.59-1.59l.35-295.26a1.6,1.6,0,0,1,1.6-1.59l249.17.3a1.59,1.59,0,0,1,1.59,1.59l-.36,295.27A1.6,1.6,0,0,1,439.58,537.29Z" transform="translate(-31.16 -188.54)"/><path class="cls-2" d="M434.29,538.07l-246.52-.3a1.59,1.59,0,0,1-1.59-1.59l.35-291.55a1.6,1.6,0,0,1,1.6-1.59l246.52.3a1.59,1.59,0,0,1,1.59,1.59l-.35,291.55A1.6,1.6,0,0,1,434.29,538.07Z" transform="translate(-31.16 -188.54)"/><path class="cls-5" d="M434.29,538.07l-246.52-.3a1.59,1.59,0,0,1-1.59-1.59l.35-291.55a1.6,1.6,0,0,1,1.6-1.59l246.52.3a1.59,1.59,0,0,1,1.59,1.59l-.35,291.55A1.6,1.6,0,0,1,434.29,538.07Z" transform="translate(-31.16 -188.54)"/><path class="cls-2" d="M429,539.39l-243.88-.29a1.6,1.6,0,0,1-1.59-1.6l.35-287.58a1.6,1.6,0,0,1,1.6-1.59l243.88.3a1.58,1.58,0,0,1,1.58,1.59l-.34,287.58A1.6,1.6,0,0,1,429,539.39Z" transform="translate(-31.16 -188.54)"/><path class="cls-6" d="M341.38,371.47l-146.7-.18a1,1,0,0,1-1-1l.06-49.52a1,1,0,0,1,1-1l146.71.18a1,1,0,0,1,1,1l-.06,49.52A1,1,0,0,1,341.38,371.47Z" transform="translate(-31.16 -188.54)"/><path class="cls-7" d="M419.45,431.13l-223.15-.27a1.42,1.42,0,0,1-1.41-1.42l.05-48.69a1.42,1.42,0,0,1,1.42-1.41l223.16.27a1.41,1.41,0,0,1,1.41,1.41l-.06,48.69A1.42,1.42,0,0,1,419.45,431.13Z" transform="translate(-31.16 -188.54)"/><rect class="cls-7" x="164.45" y="259.55" width="224.6" height="3.96"/><rect class="cls-7" x="164.45" y="248.98" width="224.6" height="3.96"/><rect class="cls-7" x="164.45" y="270.11" width="191.06" height="3.96"/><rect class="cls-8" x="202.92" y="462" width="51.52" height="70.25" rx="1" transform="translate(-299.88 536.68) rotate(-89.93)"/><rect class="cls-7" x="282.09" y="462.1" width="51.52" height="70.25" rx="1" transform="translate(-220.91 615.95) rotate(-89.93)"/><rect class="cls-6" x="360.7" y="462.2" width="51.52" height="70.25" rx="1" transform="translate(-142.49 694.64) rotate(-89.93)"/><path class="cls-8" d="M418.55,325.89l-67.91-.08a1.17,1.17,0,0,1-1.17-1.17h0a1.17,1.17,0,0,1,1.17-1.17l67.91.08a1.17,1.17,0,0,1,1.17,1.17h0A1.17,1.17,0,0,1,418.55,325.89Z" transform="translate(-31.16 -188.54)"/><path class="cls-8" d="M418.54,332.92l-67.91-.08a1.17,1.17,0,0,1-1.17-1.17h0a1.16,1.16,0,0,1,1.17-1.17l67.91.08a1.17,1.17,0,0,1,1.17,1.17h0A1.17,1.17,0,0,1,418.54,332.92Z" transform="translate(-31.16 -188.54)"/><path class="cls-8" d="M418.53,339.94l-67.91-.08a1.17,1.17,0,0,1-1.17-1.17h0a1.17,1.17,0,0,1,1.17-1.17l67.91.08a1.17,1.17,0,0,1,1.17,1.18h0A1.16,1.16,0,0,1,418.53,339.94Z" transform="translate(-31.16 -188.54)"/><path class="cls-8" d="M418.52,347l-67.91-.08a1.17,1.17,0,0,1-1.17-1.17h0a1.17,1.17,0,0,1,1.17-1.17l67.92.08a1.17,1.17,0,0,1,1.17,1.17h0A1.18,1.18,0,0,1,418.52,347Z" transform="translate(-31.16 -188.54)"/><path class="cls-8" d="M418.51,354l-67.91-.09a1.17,1.17,0,0,1-1.17-1.17h0a1.17,1.17,0,0,1,1.17-1.17l67.92.08a1.18,1.18,0,0,1,1.17,1.18h0A1.18,1.18,0,0,1,418.51,354Z" transform="translate(-31.16 -188.54)"/><path class="cls-8" d="M418.51,361l-67.92-.08a1.18,1.18,0,0,1-1.17-1.17h0a1.17,1.17,0,0,1,1.18-1.17l67.91.08a1.17,1.17,0,0,1,1.17,1.17h0A1.17,1.17,0,0,1,418.51,361Z" transform="translate(-31.16 -188.54)"/><path class="cls-8" d="M418.5,368.05,350.58,368a1.16,1.16,0,0,1-1.16-1.17h0a1.17,1.17,0,0,1,1.17-1.17l67.91.08a1.18,1.18,0,0,1,1.17,1.18h0A1.18,1.18,0,0,1,418.5,368.05Z" transform="translate(-31.16 -188.54)"/><rect class="cls-9" x="278.65" y="220.93" width="4.68" height="174.47" rx="0.83" transform="translate(-58.67 400.24) rotate(-89.93)"/><text class="cls-10" transform="matrix(1, 0, 0, 1, 177.67, 104.47)">WORLD <tspan class="cls-11" x="111.56" y="0">N</tspan><tspan class="cls-12" x="132.82" y="0">E</tspan><tspan class="cls-11" x="149.3" y="0">WS</tspan></text><rect class="cls-9" x="402.24" y="243.91" width="5.85" height="30.44" transform="translate(114.38 475.45) rotate(-89.93)"/><rect class="cls-9" x="394.97" y="123.66" width="126.7" height="230.75" rx="14.97"/><rect class="cls-13" x="394.97" y="123.66" width="126.7" height="230.75" rx="14.97"/><path class="cls-14" d="M534.65,539.54H443A14.36,14.36,0,0,1,428.83,525V330.07A14.36,14.36,0,0,1,443,315.54h91.64a14.36,14.36,0,0,1,14.18,14.53V525A14.36,14.36,0,0,1,534.65,539.54Z" transform="translate(-31.16 -188.54)"/><rect class="cls-2" x="401.71" y="130.13" width="113.22" height="218.89" rx="10.12"/><path class="cls-15" d="M545,325.13a4.13,4.13,0,0,0-2-3.6,10.09,10.09,0,0,0-7-2.87H443a10.11,10.11,0,0,0-9,5.43,7.17,7.17,0,0,0-.08,1Z" transform="translate(-31.16 -188.54)"/><path class="cls-2" d="M529.4,322.44a1.08,1.08,0,1,1-1.08-1.08A1.08,1.08,0,0,1,529.4,322.44Z" transform="translate(-31.16 -188.54)"/><path class="cls-2" d="M533.72,322.44a1.08,1.08,0,1,1-2.16,0,1.08,1.08,0,0,1,2.16,0Z" transform="translate(-31.16 -188.54)"/><path class="cls-2" d="M538,322.44a1.08,1.08,0,1,1-1.08-1.08A1.08,1.08,0,0,1,538,322.44Z" transform="translate(-31.16 -188.54)"/><path class="cls-13" d="M468.45,318.59l6.51,5.5a3.55,3.55,0,0,0,2.52,1H502.2a4,4,0,0,0,3-1.39l5.28-5.15Z" transform="translate(-31.16 -188.54)"/><path class="cls-13" d="M468.45,318.59l6.51,5.5a3.55,3.55,0,0,0,2.52,1H502.2a4,4,0,0,0,3-1.39l5.28-5.15Z" transform="translate(-31.16 -188.54)"/><path class="cls-16" d="M492.4,445H446.32c-1,0-1.8-.46-1.8-1V398.1c0-.57.81-1,1.8-1H492.4c1,0,1.8.46,1.8,1V444C494.2,444.55,493.39,445,492.4,445Z" transform="translate(-31.16 -188.54)"/><path class="cls-17" d="M535,472.14H443.92a.67.67,0,0,1-.72-.6V455.49a.67.67,0,0,1,.72-.6H535a.67.67,0,0,1,.72.6v16.05A.67.67,0,0,1,535,472.14Z" transform="translate(-31.16 -188.54)"/><text class="cls-18" transform="matrix(1, 0, 0, 1, 432.06, 164.76)">N<tspan class="cls-19" x="13.41" y="0">E</tspan><tspan x="23.81" y="0">WS </tspan><tspan class="cls-20"><tspan x="-1.68" y="23.06">T</tspan><tspan class="cls-21" x="8.12" y="23.06">O</tspan><tspan class="cls-22" x="22.13" y="23.06">D</tspan><tspan class="cls-23" x="35.43" y="23.06">A</tspan><tspan class="cls-21" x="46.44" y="23.06">Y</tspan></tspan></text><rect class="cls-15" x="411.07" y="194.84" width="94.51" height="2.74"/><rect class="cls-15" x="412.36" y="149.64" width="5.48" height="38.35"/><rect class="cls-24" x="417.84" y="149.64" width="5.48" height="38.35"/><rect class="cls-25" x="465.78" y="211.27" width="39.72" height="3.86"/><rect class="cls-25" x="465.78" y="218.99" width="39.72" height="3.86"/><rect class="cls-25" x="465.78" y="226.71" width="39.72" height="3.86"/><rect class="cls-25" x="412.36" y="292.09" width="58.9" height="3.86"/><rect class="cls-25" x="412.36" y="299.81" width="58.9" height="3.86"/><rect class="cls-25" x="412.36" y="307.53" width="58.9" height="3.86"/><rect class="cls-25" x="465.78" y="234.43" width="39.72" height="3.86"/><rect class="cls-25" x="465.78" y="242.15" width="39.72" height="3.86"/><rect class="cls-25" x="465.78" y="249.87" width="39.72" height="3.86"/><rect class="cls-26" x="449.92" y="501.47" width="15.72" height="28.73" transform="translate(-89.77 784.45) rotate(-89.93)"/><rect class="cls-17" x="482.29" y="501.51" width="15.72" height="28.73" transform="translate(-57.47 816.87) rotate(-89.93)"/><rect class="cls-27" x="514.43" y="501.55" width="15.72" height="28.73" transform="translate(-25.41 849.05) rotate(-89.93)"/><rect class="cls-16" x="474" y="292.09" width="30.13" height="19.18"/><path class="cls-28" d="M469.12,437.83a17.23,17.23,0,0,1-17.21-17.21c0-.59,0-1.2.09-1.8l.05-.45h15.82a2.42,2.42,0,0,0,2.45-2.36v-.16a2.36,2.36,0,0,0-2.39-2.18h-3.51a1.57,1.57,0,0,1-1.58-1.5,1.54,1.54,0,0,1,1.53-1.58h6.68l4,.07a2.39,2.39,0,0,0,2.38-2.48,2.46,2.46,0,0,0-2.46-2.3H459.93l2.12-.95a17,17,0,0,1,7.07-1.52,17.23,17.23,0,0,1,16.82,20.88l-.09.39h-17.5a2.52,2.52,0,1,0,0,5h3.89l-.15.62a2.3,2.3,0,0,0-.07.58,2.52,2.52,0,0,0,2.52,2.52h6.17l-1.18.9A17.07,17.07,0,0,1,469.12,437.83ZM453,419.37c0,.42,0,.84,0,1.25a16.22,16.22,0,0,0,24.71,13.81h-3.08a3.53,3.53,0,0,1-3.52-3.52v-.2h-2.67a3.52,3.52,0,1,1,0-7H485a16.44,16.44,0,0,0,.29-3.06,16.23,16.23,0,0,0-7.05-13.37,3.86,3.86,0,0,1,.16.9,3.41,3.41,0,0,1-.95,2.48,3.36,3.36,0,0,1-2.44,1l-4-.07h-6.68a.55.55,0,0,0-.38.16.53.53,0,0,0-.15.39.57.57,0,0,0,.58.53h3.51a3.35,3.35,0,0,1,3.39,3.13V416a3.43,3.43,0,0,1-3.45,3.35Zm12.26-14.49H473A16.63,16.63,0,0,0,465.22,404.88Z" transform="translate(-31.16 -188.54)"/><path class="cls-28" d="M479.4,434.43h-4.86a3.53,3.53,0,0,1-3.52-3.52v-.2h-2.67a3.52,3.52,0,1,1,0-7h17.72l-.13.61a17.22,17.22,0,0,1-6.41,10Zm-11-9.75a2.52,2.52,0,1,0,0,5h3.89l-.15.62a2.3,2.3,0,0,0-.07.58,2.52,2.52,0,0,0,2.52,2.52h4.52a16.28,16.28,0,0,0,5.76-8.75Z" transform="translate(-31.16 -188.54)"/><path class="cls-28" d="M467.87,419.37H452l.05-.55a17.27,17.27,0,0,1,10.05-13.89l.21-.05H475a3.47,3.47,0,0,1,3.46,3.27,3.41,3.41,0,0,1-.95,2.48,3.36,3.36,0,0,1-2.44,1l-4-.07h-6.68a.55.55,0,0,0-.38.16.53.53,0,0,0-.15.39.57.57,0,0,0,.58.53h3.51a3.35,3.35,0,0,1,3.39,3.13V416A3.43,3.43,0,0,1,467.87,419.37Zm-14.8-1h14.8a2.42,2.42,0,0,0,2.45-2.36v-.16a2.36,2.36,0,0,0-2.39-2.18h-3.51a1.57,1.57,0,0,1-1.58-1.5,1.54,1.54,0,0,1,1.53-1.58h6.68l4,.07a2.39,2.39,0,0,0,2.38-2.48,2.46,2.46,0,0,0-2.46-2.3H462.37A16.24,16.24,0,0,0,453.07,418.37Z" transform="translate(-31.16 -188.54)"/><path class="cls-13" d="M320.05,374.7a14.83,14.83,0,0,0,4.25-10.42h0A14.88,14.88,0,0,0,316,350.94a42.1,42.1,0,0,0,.51-6.49h0a42.3,42.3,0,0,0-42.3-42.31h0a42.31,42.31,0,0,0-42.31,42.31h0a43,43,0,0,0,.51,6.55,14.9,14.9,0,0,0-8.17,13.28h0a14.77,14.77,0,0,0,2.89,8.79,39,39,0,0,0-8.46,24.32h0a39.22,39.22,0,0,0,39.22,39.22h0a39.17,39.17,0,0,0,32-16.5,27.14,27.14,0,0,0,15,4.49h0a27.27,27.27,0,0,0,27.28-27.27h0A27.24,27.24,0,0,0,320.05,374.7Z" transform="translate(-31.16 -188.54)"/><path class="cls-14" d="M315,366.57a13.17,13.17,0,0,0,3.78-9.25h0a13.2,13.2,0,0,0-7.37-11.85,36.53,36.53,0,0,0,.46-5.77h0a37.56,37.56,0,0,0-37.56-37.56h0a37.56,37.56,0,0,0-37.56,37.56h0a37.26,37.26,0,0,0,.45,5.82,13.24,13.24,0,0,0-7.26,11.8h0a13.12,13.12,0,0,0,2.57,7.8A34.69,34.69,0,0,0,225,386.71h0a34.83,34.83,0,0,0,34.83,34.83h0a34.77,34.77,0,0,0,28.37-14.65,24.15,24.15,0,0,0,13.3,4h0a24.22,24.22,0,0,0,24.22-24.22h0A24.18,24.18,0,0,0,315,366.57Z" transform="translate(-31.16 -188.54)"/><path class="cls-29" d="M339,454l-7.73-19.31a15.34,15.34,0,0,0-9.92-9L291,416.73a20.85,20.85,0,0,0-5.66-.79H259.16a20.85,20.85,0,0,0-5.66.79l-30.1,8.87a15.53,15.53,0,0,0-10.05,9.14l-8.26,20.66a.57.57,0,0,0,.13.63l2.85,2.88,17.81,18,.87,4.49.21,10.36L228.35,555h87.8l1.34-60.34.26-13.2.91-4.73,17.17-17.36,2.59-2.61A2.58,2.58,0,0,0,339,454Z" transform="translate(-31.16 -188.54)"/><path class="cls-30" d="M154.88,446.66l-7.13-17.84a14.17,14.17,0,0,0-9.17-8.33l-28-8.22a18.87,18.87,0,0,0-5.23-.73H81.15a19,19,0,0,0-5.24.73l-27.8,8.19a14.36,14.36,0,0,0-9.28,8.44L31.2,448a.54.54,0,0,0,.11.58L34,451.23l16.46,16.65.8,4.16.19,9.57L52.68,540h81.11L135,484.22l.24-12.18.84-4.37,15.87-16,2.38-2.41A2.38,2.38,0,0,0,154.88,446.66Z" transform="translate(-31.16 -188.54)"/><path class="cls-31" d="M285.52,476.56,305,420.83l-8.88-2.61-14.32,41c-2,5.71-16.86,5.71-18.84,0l-14.46-41-8.88,2.61,19.64,55.73C262,484.53,282.75,484.53,285.52,476.56Z" transform="translate(-31.16 -188.54)"/><path class="cls-32" d="M290.44,416.6c0,.1-.05.2-.09.3l-11,31.43c-1.49,4.28-12.65,4.28-14.13,0l-11.07-31.41c0-.11-.07-.22-.1-.33l-.59.14-5,1.49,14.46,41c2,5.71,16.86,5.71,18.84,0l14.32-41L291,416.73Z" transform="translate(-31.16 -188.54)"/><path class="cls-33" d="M265.26,448.33c1.48,4.28,12.64,4.28,14.13,0l11-31.43c0-.1.06-.2.09-.3a20.45,20.45,0,0,0-5.1-.66H259.16a20.67,20.67,0,0,0-5.07.65c0,.11.06.22.1.33Z" transform="translate(-31.16 -188.54)"/><path class="cls-13" d="M316.38,558.39a2,2,0,0,1-2.13,2s-5.41.94-28.55-.28c-30.87-1.61-57.87-3.61-57.87-3.61l0-13.48h88.52Z" transform="translate(-31.16 -188.54)"/><path class="cls-13" d="M226.83,479.35a.5.5,0,0,1-.5-.5V462.54a.5.5,0,0,1,1,0v16.31A.5.5,0,0,1,226.83,479.35Z" transform="translate(-31.16 -188.54)"/><path class="cls-13" d="M317.83,479.35a.5.5,0,0,1-.5-.5V462.54a.5.5,0,0,1,1,0v16.31A.5.5,0,0,1,317.83,479.35Z" transform="translate(-31.16 -188.54)"/><path class="cls-34" d="M301.07,356v-8.92c0-.58,0-1.14-.06-1.71a1.67,1.67,0,0,0-1.67-1.55H286.88a1.33,1.33,0,0,1-1.32-1.31l0-5.89a.25.25,0,0,0-.47-.13l-3.48,6a1.92,1.92,0,0,1-1.83,1.32l-7.68-.09a1.36,1.36,0,0,1-1.31-1.6l2.38-13.22a.26.26,0,0,0-.48-.16c-1.87,4-6.36,13.91-6.36,13.91a1.94,1.94,0,0,1-1.77,1.16H253l-.63,0a1.76,1.76,0,0,1-1.71-1.78s-.18-9.52-.21-9.33l-1.53,9.3a2.18,2.18,0,0,1-2.15,1.83s-1.1,0-1.87,0a.74.74,0,0,0-.75.72C244,347.33,244,356,244,356h-.14a9.1,9.1,0,1,0-.12,18.19H244v2.28A27.32,27.32,0,0,0,259.42,401v13.92a5.75,5.75,0,0,0,.34,2l7.65,21.73c1,3,8.76,3,9.78,0l7.59-21.74a5.92,5.92,0,0,0,.33-1.95V402.5a5.47,5.47,0,0,0-.12-1.15,27.31,27.31,0,0,0,16.08-24.89v-2.29a9.09,9.09,0,0,0,0-18.17Z" transform="translate(-31.16 -188.54)"/><g class="cls-35"><path class="cls-36" d="M300.71,356.7v-8.5c0-.54,0-1.09-.06-1.62-.06-.84-1.83-.58-1.83-.58,6,24.54-8,74.54-50,41.54,0,0-1,6,11.2,13v12.26a5.65,5.65,0,0,0,.32,1.87l7.3,20.71c1,2.82,8.33,2.82,9.31,0l7.23-20.71a5.63,5.63,0,0,0,.31-1.86V401c0-.37,0,.26-.11-.1,9-4.08,16.32-14.15,16.32-24.7V374c4.68-.13,7.43-3.95,7.43-8.65S305.39,356.83,300.71,356.7Z" transform="translate(-31.16 -188.54)"/></g><path class="cls-36" d="M243.49,372.58a3.2,3.2,0,1,1-3.2-3.2A3.2,3.2,0,0,1,243.49,372.58Z" transform="translate(-31.16 -188.54)"/><path class="cls-36" d="M308.32,372.58a3.2,3.2,0,1,1-3.2-3.2A3.2,3.2,0,0,1,308.32,372.58Z" transform="translate(-31.16 -188.54)"/><path class="cls-36" d="M236.77,365a.42.42,0,0,1-.42-.42,5.6,5.6,0,0,1,5.54-6,.41.41,0,0,1,.41.41.41.41,0,0,1-.41.42c-.19,0-4.71.07-4.71,5.18A.41.41,0,0,1,236.77,365Z" transform="translate(-31.16 -188.54)"/><path class="cls-36" d="M307.52,365a.41.41,0,0,1-.41-.42c0-5.12-4.52-5.18-4.71-5.18A.42.42,0,0,1,302,359a.41.41,0,0,1,.42-.41,5.61,5.61,0,0,1,5.54,6A.42.42,0,0,1,307.52,365Z" transform="translate(-31.16 -188.54)"/><path class="cls-37" d="M271.37,403.79a27.14,27.14,0,0,1-11.87-2.74v9.15l25.61-8.53-.37-.19a27.26,27.26,0,0,1-11,2.31Z" transform="translate(-31.16 -188.54)"/><path class="cls-38" d="M257.9,376.58h-5.61a3.2,3.2,0,0,1-3.2-3.2h0a3.2,3.2,0,0,1,3.2-3.2h5.61a3.2,3.2,0,0,1,3.2,3.2h0A3.2,3.2,0,0,1,257.9,376.58Z" transform="translate(-31.16 -188.54)"/><path class="cls-38" d="M291.51,376.58h-5.6a3.2,3.2,0,0,1-3.2-3.2h0a3.2,3.2,0,0,1,3.2-3.2h5.6a3.21,3.21,0,0,1,3.21,3.2h0A3.21,3.21,0,0,1,291.51,376.58Z" transform="translate(-31.16 -188.54)"/><path class="cls-36" d="M268.09,395.2a.41.41,0,0,1-.21-.05.42.42,0,0,1-.15-.57,4.82,4.82,0,0,1,8.35,0,.43.43,0,0,1-.16.57.42.42,0,0,1-.56-.15,4,4,0,0,0-6.91,0A.42.42,0,0,1,268.09,395.2Z" transform="translate(-31.16 -188.54)"/><path class="cls-13" d="M259.19,365.15h0a1.67,1.67,0,0,1-1.67-1.67v-3.34a1.67,1.67,0,0,1,1.67-1.67h0a1.67,1.67,0,0,1,1.67,1.67v3.34A1.67,1.67,0,0,1,259.19,365.15Z" transform="translate(-31.16 -188.54)"/><path class="cls-13" d="M284.8,365.15h0a1.67,1.67,0,0,1-1.67-1.67v-3.34a1.67,1.67,0,0,1,1.67-1.67h0a1.67,1.67,0,0,1,1.67,1.67v3.34A1.67,1.67,0,0,1,284.8,365.15Z" transform="translate(-31.16 -188.54)"/><path class="cls-36" d="M276.13,374.59h-6a1.48,1.48,0,0,1-1.15-2.42,10.22,10.22,0,0,0,2.26-6.4v-5.7a.42.42,0,0,1,.42-.42.41.41,0,0,1,.41.42v5.7a11,11,0,0,1-2.45,6.92.66.66,0,0,0-.08.7.64.64,0,0,0,.59.37h6a.42.42,0,0,1,.42.42A.41.41,0,0,1,276.13,374.59Z" transform="translate(-31.16 -188.54)"/><path class="cls-13" d="M280.93,387.81H277.4a5.13,5.13,0,0,1-5.11-5.12V381a2.74,2.74,0,0,1,2.74-2.73h8.38a2.63,2.63,0,0,1,2.63,2.63v1.82A5.12,5.12,0,0,1,280.93,387.81Z" transform="translate(-31.16 -188.54)"/><path class="cls-39" d="M281.46,387.1h-4.58a1.87,1.87,0,0,1-1.87-1.87h0a1.87,1.87,0,0,1,1.87-1.87h4.58a1.87,1.87,0,0,1,1.87,1.87h0A1.87,1.87,0,0,1,281.46,387.1Z" transform="translate(-31.16 -188.54)"/><path class="cls-13" d="M284.6,352.12a6.08,6.08,0,0,0,2.41.82c.89.17,1.78.37,2.54.56s1.65.46,2.51.74a6.09,6.09,0,0,0,2.5.45c.73-.11,1.2-.83.67-2a7,7,0,0,0-4.67-3.34,6.85,6.85,0,0,0-5.64.68C283.92,350.8,284,351.67,284.6,352.12Z" transform="translate(-31.16 -188.54)"/><path class="cls-13" d="M252.49,354.89a6.14,6.14,0,0,0,2.48-.57c.85-.31,1.71-.61,2.47-.84s1.64-.47,2.52-.68a6.15,6.15,0,0,0,2.37-.91c.56-.48.59-1.35-.48-2.08a7,7,0,0,0-5.73-.41,6.81,6.81,0,0,0-4.46,3.52C251.22,354.11,251.75,354.81,252.49,354.89Z" transform="translate(-31.16 -188.54)"/><path class="cls-13" d="M300.5,356.38a2.24,2.24,0,0,0-1.61-.69H279.46a2.27,2.27,0,0,0-2.13,1.52,11.58,11.58,0,0,0-10,0,2.14,2.14,0,0,0-.47-.72,2.22,2.22,0,0,0-1.62-.7l-19.43-.06a2.09,2.09,0,0,0-1.6.66,2.26,2.26,0,0,0-.67,1.6v6.31c0,6,4.44,10.91,9.89,10.91h4.18c5.45,0,9.88-4.89,9.88-10.91V359a10.09,10.09,0,0,1,9.71,0v5.26c0,6,4.43,10.91,9.88,10.91h4.18c5.45,0,9.89-4.89,9.89-10.91V358A2.26,2.26,0,0,0,300.5,356.38Zm-34.67,7.89c0,5.1-3.69,9.24-8.22,9.24h-4.18c-4.54,0-8.23-4.14-8.23-9.24V358a.61.61,0,0,1,.61-.6h0l19.42.06a.57.57,0,0,1,.43.19.55.55,0,0,1,.17.44Zm33.66,0c0,5.1-3.69,9.24-8.23,9.24h-4.18c-4.53,0-8.22-4.14-8.22-9.24V358a.6.6,0,0,1,.6-.6h19.43a.6.6,0,0,1,.43.18.61.61,0,0,1,.17.43Z" transform="translate(-31.16 -188.54)"/><path class="cls-34" d="M225.88,476.94l-17.81-18-11,49.15a11.21,11.21,0,0,0,8.51,13.39l3.08.69a11.22,11.22,0,0,0,13.39-8.5L227,491.79l-.21-10.36Z" transform="translate(-31.16 -188.54)"/><path class="cls-40" d="M225.88,476.94l-17.81-18-11,49.15a11.21,11.21,0,0,0,8.51,13.39l3.08.69a11.22,11.22,0,0,0,13.39-8.5L227,491.79l-.21-10.36Z" transform="translate(-31.16 -188.54)"/><polygon class="cls-37" points="182.19 275.72 195.52 304.9 195.52 288.09 182.19 275.72"/><path class="cls-34" d="M261.61,457.57l2.3-8.42a11.41,11.41,0,0,1,4.6-6.45l2.1-1.44a2.32,2.32,0,0,1,3.62,2l-.09,1.72A13.22,13.22,0,0,1,263,457.36Z" transform="translate(-31.16 -188.54)"/><path class="cls-41" d="M261.61,457.57l2.3-8.42a11.41,11.41,0,0,1,4.6-6.45l2.1-1.44a2.32,2.32,0,0,1,3.62,2l-.09,1.72A13.22,13.22,0,0,1,263,457.36Z" transform="translate(-31.16 -188.54)"/><circle class="cls-13" cx="244.83" cy="226.13" r="8.34"/><rect class="cls-13" x="241.05" y="236.91" width="7.56" height="30.19" rx="1.52"/><path class="cls-42" d="M274.62,455.64h0a2.12,2.12,0,0,1-2.12-2.11v-26a2.12,2.12,0,0,1,2.12-2.11h0a2.12,2.12,0,0,1,2.11,2.11v26A2.12,2.12,0,0,1,274.62,455.64Z" transform="translate(-31.16 -188.54)"/><rect class="cls-24" x="236.5" y="233.07" width="16.67" height="13.89" rx="1.49"/><path class="cls-43" d="M276.1,435.5h-6.66A1.49,1.49,0,0,1,268,434v-10.9a1.5,1.5,0,0,1,1.49-1.5h6.66Z" transform="translate(-31.16 -188.54)"/><path class="cls-9" d="M276.16,430.14a.5.5,0,0,1-.51.4h-1.27a.49.49,0,0,1-.51-.4l-.32-2.62c0-.23,0-.47-.05-.69h-.12c0,.23,0,.47-.05.7l-.32,2.61a.49.49,0,0,1-.51.4h-1.28a.5.5,0,0,1-.51-.4l-.58-4.35h1.47l.24,2.91c0,.24,0,.49,0,.79H272c0-.24.09-.55.12-.79l.32-2.47a.48.48,0,0,1,.5-.44H274a.5.5,0,0,1,.5.44l.32,2.48c0,.25.07.54.1.79H275c0-.26,0-.55,0-.78l.23-2.92h1.48Z" transform="translate(-31.16 -188.54)"/><path class="cls-15" d="M281.65,430.16a.33.33,0,0,1-.37.38h-.65c-.22,0-.32-.1-.42-.31L279,427.7a4.7,4.7,0,0,1-.28-.74h-.08a6.47,6.47,0,0,1,0,.76v2.82h-1v-4.37a.34.34,0,0,1,.38-.38h.64c.22,0,.32.1.42.31l1.2,2.46c.1.21.23.49.34.76h.07c0-.27,0-.53,0-.8v-2.73h1Z" transform="translate(-31.16 -188.54)"/><path class="cls-44" d="M285.13,416.05H267.07a.69.69,0,0,1-.69-.69h0a.69.69,0,0,1,.69-.69h18.06a.7.7,0,0,1,.7.69h0A.7.7,0,0,1,285.13,416.05Z" transform="translate(-31.16 -188.54)"/><path class="cls-34" d="M285.12,441.14a1.22,1.22,0,0,0-1.84-.31l-8.81,4.41a27.15,27.15,0,0,0-9.09,7.36,24.71,24.71,0,0,1-3.17,3.74l-60.32,47.42a11,11,0,0,0-.68,16,14.38,14.38,0,0,0,20.65,0l49-52.53c2.74-.73,6.92-2.51,12-6.84C290.46,454,286.8,444.53,285.12,441.14Z" transform="translate(-31.16 -188.54)"/><path class="cls-34" d="M348.19,514.7l-12.36-55.36L318.66,476.7l-.91,4.73-.26,13.2,5.72,25.64a11.22,11.22,0,0,0,13.39,8.51l3.08-.69A11.22,11.22,0,0,0,348.19,514.7Z" transform="translate(-31.16 -188.54)"/><path class="cls-40" d="M348.19,514.7l-12.36-55.36L318.66,476.7l-.91,4.73-.26,13.2,5.72,25.64a11.22,11.22,0,0,0,13.39,8.51l3.08-.69A11.22,11.22,0,0,0,348.19,514.7Z" transform="translate(-31.16 -188.54)"/><polygon class="cls-37" points="299.67 275.72 286.34 304.9 286.67 289 299.67 275.72"/><path class="cls-34" d="M381.81,465.29a8.5,8.5,0,0,0,14,1.16l4.52-5.54a3,3,0,0,0,.24-3.8h0a3,3,0,0,0-4.08-.83l-6.77,4.2-7.89,4.81Z" transform="translate(-31.16 -188.54)"/><g class="cls-45"><path class="cls-36" d="M381.81,465.29a8.5,8.5,0,0,0,14,1.16l4.52-5.54a3,3,0,0,0,.24-3.8h0a3,3,0,0,0-4.08-.83l-6.77,4.2-7.89,4.81Z" transform="translate(-31.16 -188.54)"/></g><path class="cls-34" d="M414.41,456.32a5.13,5.13,0,0,0-4.84,2.53,9.62,9.62,0,0,1-9.38,4.73c-6.16-.69-15.38-1-19.64,2.15l.05.11c-.1.08-.21.14-.31.23L328,510.7a10.33,10.33,0,0,0-.71,15,13.49,13.49,0,0,0,19.38.12L390.54,481l15.87-3a5.66,5.66,0,0,0,4.89-2.63l7.05-11.14A5.14,5.14,0,0,0,414.41,456.32Z" transform="translate(-31.16 -188.54)"/><path class="cls-46" d="M466.32,203.54h62.9a7.67,7.67,0,0,1,7.68,7.67v62.91a7.67,7.67,0,0,1-7.68,7.67H478.65a4.26,4.26,0,0,0-2.84,1.1l-10.13,9.21a4.21,4.21,0,0,1-7-3.12V211.21A7.67,7.67,0,0,1,466.32,203.54Z" transform="translate(-31.16 -188.54)"/><path class="cls-47" d="M466.32,203.54h62.9a7.67,7.67,0,0,1,7.68,7.67v62.91a7.67,7.67,0,0,1-7.68,7.67H478.65a4.26,4.26,0,0,0-2.84,1.1l-10.13,9.21a4.21,4.21,0,0,1-7-3.12V211.21A7.67,7.67,0,0,1,466.32,203.54Z" transform="translate(-31.16 -188.54)"/><path class="cls-48" d="M469.36,206.54h56.82a6.94,6.94,0,0,1,6.94,6.93V270.3a6.94,6.94,0,0,1-6.94,6.93H480.49a3.83,3.83,0,0,0-2.55,1l-9.15,8.32a3.81,3.81,0,0,1-6.37-2.81V213.47A6.94,6.94,0,0,1,469.36,206.54Z" transform="translate(-31.16 -188.54)"/><path class="cls-49" d="M485.52,250.83l0,0,0,0Z" transform="translate(-31.16 -188.54)"/><polygon class="cls-2" points="447.91 58.26 450.02 68.78 454.34 62.27 447.91 58.26"/><path class="cls-2" d="M524,223.81l-44,23a.88.88,0,0,1-.89-.05h0l6.42,4h0l0,0a.88.88,0,0,1,.36-.85l38.44-26.34-.25.13Z" transform="translate(-31.16 -188.54)"/><path class="cls-5" d="M524.07,223.77l-.07,0-44,23a.88.88,0,0,1-.89-.05h0l2.1,10.53,4.32-6.51h0l0,0a.88.88,0,0,1,.36-.85l38.44-26.34Z" transform="translate(-31.16 -188.54)"/><path class="cls-50" d="M524.38,223.58s0,0-.06.06" transform="translate(-31.16 -188.54)"/><path class="cls-2" d="M485.52,250.83h0l2.88,3.28,6.9,7.26a6.26,6.26,0,0,0,10-1.24l19-36.5L485.88,250A.88.88,0,0,0,485.52,250.83Z" transform="translate(-31.16 -188.54)"/><path class="cls-2" d="M480,246.83l44-23,.07,0c.08-.05.15-.11-.1-.06l-52.78,10.65a3,3,0,0,0-1.2,5.3l9.05,7.08.07,0A.88.88,0,0,0,480,246.83Z" transform="translate(-31.16 -188.54)"/><polygon class="cls-2" points="454.37 62.3 454.34 62.27 454.34 62.27 454.34 62.27 450.02 68.78 457.24 65.58 457.24 65.58 454.37 62.3"/><polygon class="cls-4" points="454.37 62.3 454.34 62.27 454.34 62.27 454.34 62.27 450.02 68.78 457.24 65.58 457.24 65.58 454.37 62.3"/><rect class="cls-36" x="155.98" y="12.72" width="69.62" height="24.7" rx="1.37"/><text class="cls-51" transform="translate(166.02 34.48)">LIVE</text><path class="cls-52" d="M130.9,395.75V343.54a6.38,6.38,0,0,1,6.37-6.38h52.22a6.38,6.38,0,0,1,6.37,6.38v42a3.51,3.51,0,0,0,.91,2.35l7.64,8.41a3.49,3.49,0,0,1-2.58,5.84H137.27A6.37,6.37,0,0,1,130.9,395.75Z" transform="translate(-31.16 -188.54)"/><path class="cls-47" d="M129.9,395.75V343.54a6.38,6.38,0,0,1,6.37-6.38h52.22a6.38,6.38,0,0,1,6.37,6.38v42a3.51,3.51,0,0,0,.91,2.35l7.64,8.41a3.49,3.49,0,0,1-2.58,5.84H136.27A6.37,6.37,0,0,1,129.9,395.75Z" transform="translate(-31.16 -188.54)"/><path class="cls-53" d="M130.9,394.81V347.89a5.87,5.87,0,0,1,6-5.73H186a5.86,5.86,0,0,1,6,5.73v37.72a3.07,3.07,0,0,0,.86,2.12l7.18,7.55a3.13,3.13,0,0,1-2.43,5.26H136.89A5.87,5.87,0,0,1,130.9,394.81Z" transform="translate(-31.16 -188.54)"/><path class="cls-2" d="M156.64,383.93a5,5,0,1,1,1.43,3.79A5.26,5.26,0,0,1,156.64,383.93ZM167,355.64c0,.86,0,2.1-.06,3.73s-.11,3.39-.22,5.28-.26,3.78-.45,5.67-.41,3.52-.67,4.91a3.26,3.26,0,0,1-.68.34,8.16,8.16,0,0,1-.95.28c-.34.07-.67.13-1,.17s-.64.05-.9.05a6.58,6.58,0,0,1-2.72-.5,2.52,2.52,0,0,1-1.38-2,30.52,30.52,0,0,1-.47-3.93c-.13-1.76-.26-3.66-.37-5.72s-.2-4.1-.25-6.12c0-1-.05-1.89-.06-2.72a3.43,3.43,0,0,1,2.5-3.42h0a11.56,11.56,0,0,1,2.83-.36,5.39,5.39,0,0,1,3.57,1.06A4,4,0,0,1,167,355.64Z" transform="translate(-31.16 -188.54)"/><g class="cls-54"><path class="cls-24" d="M161.91,378.65a5.28,5.28,0,1,1,0,10.55c-.85,0,1.92-.66,1.92-5.66S161.06,378.65,161.91,378.65Zm4.94-23c0,.86,0,2.1-.06,3.73s-.11,3.39-.23,5.28-.26,3.78-.44,5.67-.42,3.52-.68,4.91a3.14,3.14,0,0,1-.67.34,8.34,8.34,0,0,1-1,.28c-.33.07-.67.13-1,.17s-.63.05-.89.05,1.65-5.67,1.67-11.58c0-6.45-1.82-13.17-1.56-13.17a5.36,5.36,0,0,1,3.56,1.06A4,4,0,0,1,166.85,355.64Z" transform="translate(-31.16 -188.54)"/></g></svg>